<svg width="23" height="23" viewBox="0 0 23 23" fill="none" xmlns="http://www.w3.org/2000/svg">
<path d="M1.33176 11.5261C1.83574 12.1122 2.61524 12.333 3.31961 12.166V21.3824C3.31961 21.8024 3.65142 22.1476 4.07661 22.1476H18.9237C19.3463 22.1476 19.6889 21.805 19.6889 21.3824V12.1667C20.4112 12.3403 21.1773 12.0986 21.6694 11.5252L21.6694 11.5251C22.016 11.1205 22.1848 10.6044 22.144 10.0733C22.1032 9.54197 21.8575 9.05773 21.453 8.71108L19.689 7.19904V2.84379C19.689 2.42117 19.3463 2.0786 18.9238 2.0786H16.4629C16.0377 2.0786 15.7059 2.42386 15.7059 2.84379V3.7792L12.84 1.3367C12.8399 1.33666 12.8399 1.33663 12.8398 1.33659C12.0878 0.6924 10.9948 0.692281 10.2448 1.33476C10.2447 1.33482 10.2446 1.33488 10.2446 1.33494L1.54805 8.71051L1.54747 8.711C0.715901 9.42351 0.607878 10.6811 1.33158 11.5259L1.33176 11.5261ZM19.8513 10.5795L19.8513 10.5795L12.0392 3.88315C11.7537 3.63841 11.3328 3.63741 11.0462 3.88059L3.14999 10.5787L3.14954 10.5791C2.95472 10.7458 2.65957 10.723 2.49288 10.5291C2.32581 10.3339 2.34909 10.0397 2.54079 9.87516C2.5409 9.87507 2.541 9.87499 2.5411 9.8749L11.2376 2.49931L11.2382 2.49883C11.4142 2.34806 11.6683 2.34809 11.844 2.49872L11.8441 2.49877L20.4571 9.87314C20.4571 9.87316 20.4571 9.87317 20.4572 9.87319C20.6517 10.0399 20.6742 10.3344 20.5075 10.5289C20.3422 10.7216 20.0489 10.749 19.8513 10.5795ZM17.2281 3.60898H18.1667V5.88863L17.2281 5.08943V3.60898ZM13.8602 20.6172H9.14833V15.9873H13.8602V20.6172ZM18.1668 20.6172H15.3825V15.2303C15.3825 14.8077 15.0398 14.4651 14.6173 14.4651H8.38309C7.95785 14.4651 7.6261 14.8104 7.6261 15.2303V20.6172H4.84184V11.1505L11.5387 5.46974L18.1668 11.1443V20.6172Z" fill="#90604C" stroke="#90604C" stroke-width="0.3"/>
<path d="M13.3866 8.23037H9.61334C9.1881 8.23037 8.85635 8.57564 8.85635 8.99556V12.6868C8.85635 13.1068 9.18815 13.452 9.61334 13.452H13.3866C13.8092 13.452 14.1518 13.1094 14.1518 12.6868V8.99558C14.1518 8.99558 14.1518 8.99557 14.1518 8.99556C14.1519 8.57293 13.8092 8.23037 13.3866 8.23037ZM12.6296 11.9217H10.3785V9.7608H12.6296V11.9217Z" fill="#90604C" stroke="#90604C" stroke-width="0.3"/>
<path d="M12.1562 18.4558C12.5788 18.4558 12.9214 18.1132 12.9214 17.6906C12.9214 17.268 12.5788 16.9254 12.1562 16.9254C11.7336 16.9254 11.391 17.268 11.391 17.6906C11.391 18.1132 11.7336 18.4558 12.1562 18.4558Z" fill="#90604C" stroke="#90604C" stroke-width="0.3"/>
</svg>
