<svg width="23" height="23" viewBox="0 0 23 23" fill="none" xmlns="http://www.w3.org/2000/svg">
<mask id="path-1-outside-1_85_933" maskUnits="userSpaceOnUse" x="0" y="0" width="23" height="23" fill="black">
<rect fill="white" width="23" height="23"/>
<path d="M20.1827 18.1662V11.2239C21.2529 10.733 22 9.63908 22 8.37016C22 8.34837 21.9992 8.3269 21.9987 8.30527C22.0064 8.17693 21.9731 8.04748 21.9007 7.93693C21.9003 7.93645 21.9 7.93597 21.8997 7.93549L20.4922 5.76999C20.4893 5.7655 20.4864 5.76086 20.4835 5.75637L19.375 4.05118V2.81734C19.375 1.81519 18.5598 1 17.5577 1H5.44234C4.44019 1 3.625 1.81519 3.625 2.81734V4.05118L1.1003 7.93549C1.09998 7.93613 1.09966 7.93677 1.09933 7.93725C1.02868 8.04507 0.995995 8.17036 1.00144 8.29469C1.0008 8.31985 1 8.34484 1 8.37016C1 9.63908 1.74709 10.733 2.81734 11.2239V18.1662C1.80637 18.2189 1 19.0579 1 20.0817C1 21.1395 1.86053 22 2.91828 22H20.0817C21.1395 22 22 21.1395 22 20.0817C22 19.0579 21.1936 18.2189 20.1827 18.1662V18.1662ZM19.4106 10.2211C19.3715 10.232 19.3322 10.2417 19.2928 10.2498C19.292 10.25 19.291 10.2501 19.2902 10.2505C19.2122 10.2666 19.1334 10.2774 19.0542 10.2831C19.0475 10.2836 19.0405 10.2841 19.0337 10.2846C18.9961 10.2868 18.9584 10.2884 18.9206 10.2884C18.8908 10.2884 18.8612 10.2875 18.8317 10.2862C18.8223 10.2857 18.813 10.2849 18.8035 10.2843C18.7833 10.283 18.7633 10.2815 18.7433 10.2795C18.7325 10.2785 18.7218 10.2772 18.7111 10.2761C18.6923 10.2739 18.6736 10.2715 18.655 10.2687C18.6442 10.2671 18.6337 10.2655 18.6231 10.2638C18.6037 10.2606 18.5843 10.257 18.5651 10.2532C18.556 10.2514 18.5467 10.2497 18.5377 10.2477C18.5106 10.242 18.484 10.2357 18.4574 10.2287C18.4563 10.2284 18.4552 10.2282 18.4541 10.2279C18.4264 10.2205 18.399 10.2125 18.3719 10.2038C18.3634 10.2011 18.3552 10.1982 18.3469 10.1954C18.328 10.1893 18.3094 10.1829 18.2908 10.176C18.2812 10.1723 18.2716 10.1686 18.262 10.1649C18.2448 10.1582 18.2277 10.1513 18.2107 10.1441C18.2011 10.1401 18.1916 10.1361 18.1822 10.1317C18.1644 10.1241 18.1469 10.1157 18.1296 10.1074C18.1215 10.1034 18.1133 10.0997 18.1053 10.0957C18.0819 10.0838 18.0587 10.0718 18.0359 10.0592C18.0341 10.0582 18.0324 10.0572 18.0306 10.0563C18.0059 10.0425 17.9818 10.0281 17.9579 10.0133C17.9508 10.0089 17.9438 10.0042 17.9367 9.99973C17.9201 9.98899 17.9034 9.97826 17.8871 9.96688C17.8787 9.96127 17.8706 9.95551 17.8624 9.94958C17.8473 9.939 17.8324 9.92811 17.8175 9.91689C17.8095 9.9108 17.8013 9.90472 17.7933 9.89847C17.7783 9.88661 17.7632 9.87444 17.7485 9.86226C17.7416 9.85649 17.7345 9.85072 17.7276 9.84496C17.7084 9.82845 17.6895 9.81163 17.6709 9.79449C17.669 9.79256 17.6668 9.7908 17.6648 9.78888C17.6442 9.76965 17.6241 9.74979 17.6044 9.72976C17.5988 9.72399 17.5934 9.71806 17.5878 9.7123C17.5738 9.69756 17.5601 9.68282 17.5466 9.66776C17.5399 9.66039 17.5333 9.65269 17.5267 9.64516C17.5147 9.63123 17.5027 9.61697 17.4908 9.60271C17.4843 9.5947 17.4779 9.58685 17.4715 9.57867C17.4596 9.56377 17.4479 9.54839 17.4365 9.53301C17.4309 9.52564 17.4253 9.51827 17.4199 9.51074C17.4056 9.49088 17.3917 9.47069 17.3781 9.45034C17.376 9.44714 17.3737 9.44409 17.3715 9.44089C17.3559 9.41718 17.3409 9.39298 17.3263 9.36847C17.3221 9.36158 17.3183 9.35453 17.3143 9.34748C17.304 9.32986 17.2939 9.31207 17.2843 9.29397C17.2794 9.285 17.2747 9.2757 17.2701 9.26657C17.2614 9.25007 17.2531 9.23357 17.2451 9.21674C17.2404 9.20713 17.2359 9.19736 17.2315 9.18774C17.2234 9.17044 17.2158 9.15298 17.2082 9.13535C17.2044 9.12622 17.2004 9.11725 17.1967 9.10812C17.1879 9.08617 17.1794 9.06406 17.1712 9.04195C17.1694 9.03698 17.1675 9.03217 17.1658 9.02721C17.1562 9.00013 17.147 8.97257 17.1385 8.94501C17.1361 8.93684 17.1339 8.92867 17.1315 8.9205C17.1272 8.90544 17.123 8.89022 17.119 8.87516H20.7229C20.5492 9.52821 20.0468 10.0433 19.4106 10.2211V10.2211ZM15.7557 8.94485C15.7472 8.97257 15.7381 8.99997 15.7285 9.02721C15.7267 9.03217 15.7248 9.03682 15.723 9.04179C15.7148 9.06406 15.7063 9.08617 15.6975 9.10796C15.6938 9.11725 15.6898 9.12622 15.686 9.13535C15.6785 9.15282 15.6708 9.17028 15.6629 9.18758C15.6584 9.19736 15.6538 9.20697 15.6491 9.21658C15.6411 9.23341 15.6328 9.25007 15.6243 9.26657C15.6195 9.2757 15.6149 9.28484 15.6099 9.29397C15.6003 9.31207 15.5902 9.3297 15.5799 9.34748C15.5759 9.35437 15.5721 9.36158 15.5679 9.36847C15.5533 9.39282 15.5383 9.41702 15.5227 9.44073C15.5205 9.44393 15.5182 9.44714 15.5162 9.45034C15.5025 9.47069 15.4886 9.49088 15.4743 9.51058C15.4689 9.51811 15.4633 9.52548 15.4577 9.53301C15.4463 9.54839 15.4346 9.56361 15.4228 9.57867C15.4164 9.58669 15.4099 9.5947 15.4034 9.60255C15.3915 9.61697 15.3797 9.63107 15.3675 9.64516C15.3609 9.65269 15.3543 9.66022 15.3476 9.66776C15.3342 9.68282 15.3204 9.69756 15.3064 9.71214C15.3008 9.71806 15.2954 9.72399 15.2898 9.7296C15.2701 9.74979 15.25 9.76965 15.2294 9.78888C15.2275 9.79064 15.2252 9.79256 15.2233 9.79433C15.2047 9.81163 15.1858 9.82829 15.1666 9.8448C15.1597 9.85072 15.1526 9.85633 15.1457 9.8621C15.131 9.87444 15.1159 9.88645 15.1009 9.89831C15.0929 9.90456 15.0847 9.9108 15.0767 9.91689C15.062 9.92795 15.0471 9.93884 15.032 9.94958C15.0237 9.95535 15.0155 9.96111 15.0072 9.96688C14.9908 9.9781 14.9742 9.98899 14.9575 9.99973C14.9504 10.0042 14.9436 10.0089 14.9363 10.0132C14.9125 10.0281 14.8883 10.0425 14.8636 10.0563C14.8618 10.0572 14.8601 10.058 14.8583 10.059C14.8356 10.0717 14.8123 10.0838 14.7889 10.0955C14.7809 10.0995 14.7728 10.1034 14.7646 10.1072C14.7473 10.1157 14.7298 10.1239 14.712 10.1317C14.7026 10.1359 14.6931 10.1399 14.6835 10.1441C14.6665 10.1511 14.6496 10.158 14.6322 10.1647C14.6226 10.1686 14.613 10.1723 14.6034 10.1758C14.5848 10.1827 14.5662 10.1891 14.5475 10.1954C14.539 10.1981 14.5308 10.2011 14.5223 10.2037C14.4953 10.2123 14.4679 10.2203 14.4401 10.2277C14.439 10.228 14.4379 10.2284 14.4368 10.2287C14.4102 10.2356 14.3834 10.2418 14.3567 10.2477C14.3475 10.2497 14.3382 10.2513 14.3291 10.253C14.3099 10.2569 14.2905 10.2606 14.2711 10.2638C14.2605 10.2655 14.25 10.2671 14.2392 10.2686C14.2206 10.2713 14.2019 10.2737 14.1832 10.2759C14.1724 10.2772 14.1619 10.2783 14.151 10.2795C14.1311 10.2814 14.1109 10.2828 14.0907 10.2841C14.0813 10.2848 14.072 10.2856 14.0625 10.286C14.033 10.2875 14.0034 10.2883 13.9736 10.2883C13.9436 10.2883 13.914 10.2875 13.8845 10.286C13.8751 10.2856 13.8658 10.2848 13.8565 10.2841C13.8363 10.2828 13.8161 10.2814 13.7961 10.2795C13.7853 10.2783 13.7746 10.2772 13.764 10.2759C13.7451 10.2737 13.7264 10.2713 13.7078 10.2686C13.6972 10.267 13.6866 10.2655 13.6761 10.2638C13.6565 10.2606 13.6373 10.2569 13.6179 10.253C13.6088 10.2513 13.5996 10.2497 13.5905 10.2477C13.5636 10.242 13.5368 10.2356 13.5104 10.2287C13.5093 10.2284 13.5082 10.228 13.5069 10.2277C13.4793 10.2203 13.4519 10.2123 13.4247 10.2037C13.4164 10.2011 13.408 10.1981 13.3997 10.1954C13.381 10.1891 13.3622 10.1827 13.3438 10.1758C13.334 10.1723 13.3244 10.1686 13.3148 10.1647C13.2976 10.158 13.2805 10.1511 13.2635 10.1441C13.2541 10.1399 13.2444 10.1359 13.235 10.1317C13.2174 10.1239 13.1999 10.1157 13.1824 10.1072C13.1743 10.1034 13.1661 10.0995 13.1581 10.0955C13.1347 10.0838 13.1116 10.0717 13.0887 10.059C13.0871 10.058 13.0852 10.0572 13.0834 10.0563C13.0589 10.0425 13.0347 10.0281 13.0107 10.0132C13.0036 10.0089 12.9967 10.0042 12.9897 9.99973C12.9729 9.98899 12.9564 9.9781 12.9399 9.96688C12.9315 9.96111 12.9234 9.95535 12.9152 9.94958C12.9001 9.93884 12.8852 9.92795 12.8705 9.91689C12.8623 9.9108 12.8543 9.90456 12.8463 9.89831C12.8311 9.88645 12.8162 9.87444 12.8014 9.8621C12.7944 9.85633 12.7873 9.85072 12.7806 9.8448C12.7614 9.82845 12.7425 9.81163 12.7239 9.79433C12.7218 9.79256 12.7197 9.79064 12.7177 9.78888C12.6971 9.76949 12.677 9.74979 12.6572 9.7296C12.6516 9.72383 12.6462 9.7179 12.6407 9.71214C12.6268 9.69756 12.6129 9.68282 12.5994 9.66776C12.5928 9.66022 12.5863 9.65269 12.5797 9.64516C12.5675 9.63107 12.5555 9.61697 12.5438 9.60255C12.5372 9.5947 12.5308 9.58669 12.5244 9.57867C12.5124 9.56361 12.5009 9.54839 12.4893 9.53301C12.4839 9.52548 12.4783 9.51811 12.4728 9.51058C12.4584 9.49088 12.4445 9.47069 12.431 9.45034C12.4288 9.44714 12.4265 9.44393 12.4245 9.44073C12.4089 9.41702 12.3939 9.39282 12.3793 9.36847C12.3751 9.36158 12.3713 9.35437 12.3673 9.34748C12.3568 9.3297 12.3469 9.31191 12.3371 9.29397C12.3323 9.28484 12.3275 9.2757 12.3229 9.26657C12.3144 9.25007 12.3061 9.23341 12.2979 9.21658C12.2932 9.20697 12.2887 9.19736 12.2843 9.18758C12.2763 9.17044 12.2686 9.15282 12.2612 9.13535C12.2573 9.12622 12.2533 9.11725 12.2497 9.10796C12.2407 9.08617 12.2322 9.06406 12.2242 9.04179C12.2224 9.03698 12.2203 9.03217 12.2186 9.02721C12.209 8.99997 12.2 8.97257 12.1915 8.94485C12.1889 8.93668 12.1869 8.92851 12.1844 8.92034C12.18 8.90544 12.176 8.89022 12.172 8.875H15.7752C15.7712 8.89022 15.7671 8.90528 15.7627 8.92034C15.7603 8.92851 15.7581 8.93668 15.7557 8.94485ZM10.8085 8.94485C10.8 8.97257 10.791 8.99997 10.7814 9.02721C10.7797 9.03217 10.7776 9.03682 10.7758 9.04179C10.7678 9.06406 10.7593 9.08617 10.7503 9.10796C10.7467 9.11725 10.7427 9.12622 10.7388 9.13535C10.7314 9.15282 10.7237 9.17028 10.7157 9.18758C10.7113 9.19736 10.7068 9.20697 10.7021 9.21658C10.6939 9.23341 10.6856 9.25007 10.6771 9.26657C10.6725 9.2757 10.6677 9.28484 10.6629 9.29397C10.6531 9.31207 10.6432 9.3297 10.6327 9.34748C10.6287 9.35437 10.6249 9.36158 10.6207 9.36847C10.6061 9.39282 10.5912 9.41702 10.5755 9.44073C10.5735 9.44393 10.5712 9.44714 10.569 9.45034C10.5555 9.47069 10.5416 9.49088 10.5272 9.51058C10.5219 9.51811 10.5161 9.52548 10.5107 9.53301C10.4991 9.54839 10.4876 9.56361 10.4756 9.57867C10.4692 9.58669 10.4628 9.5947 10.4562 9.60255C10.4445 9.61697 10.4325 9.63107 10.4203 9.64516C10.4137 9.65269 10.4072 9.66022 10.4006 9.66776C10.3871 9.68282 10.3732 9.69756 10.3593 9.71214C10.3538 9.71806 10.3484 9.72399 10.3428 9.7296C10.323 9.74979 10.3029 9.76965 10.2823 9.78888C10.2803 9.79064 10.2782 9.79256 10.2761 9.79433C10.2575 9.81163 10.2386 9.82829 10.2194 9.8448C10.2127 9.85072 10.2056 9.85633 10.1986 9.8621C10.1838 9.87444 10.1689 9.88645 10.1537 9.89831C10.1457 9.90456 10.1377 9.9108 10.1295 9.91689C10.1148 9.92795 10.0999 9.93884 10.0848 9.94958C10.0766 9.95535 10.0685 9.96111 10.0601 9.96688C10.0436 9.9781 10.0271 9.98899 10.0103 9.99973C10.0033 10.0042 9.99636 10.0089 9.98931 10.0132C9.96528 10.0281 9.94109 10.0425 9.91657 10.0563C9.91481 10.0572 9.91289 10.058 9.91129 10.059C9.88837 10.0717 9.8653 10.0838 9.84191 10.0955C9.8339 10.0995 9.82573 10.1034 9.81756 10.1072C9.80009 10.1157 9.78263 10.1239 9.76501 10.1317C9.75555 10.1359 9.74594 10.1399 9.73649 10.1441C9.71951 10.1511 9.70236 10.158 9.68522 10.1647C9.67561 10.1686 9.66599 10.1723 9.65622 10.1758C9.63779 10.1827 9.61905 10.1891 9.6003 10.1954C9.59197 10.1981 9.58364 10.2011 9.57531 10.2037C9.54807 10.2123 9.52068 10.2203 9.49312 10.2277C9.49184 10.228 9.49072 10.2284 9.48959 10.2287C9.46316 10.2356 9.4364 10.2418 9.40948 10.2477C9.40035 10.2497 9.39122 10.2513 9.38209 10.253C9.3627 10.2569 9.34348 10.2606 9.32393 10.2638C9.31335 10.2655 9.30278 10.2671 9.29221 10.2686C9.27362 10.2713 9.25488 10.2737 9.23597 10.2759C9.2254 10.2772 9.21466 10.2783 9.20393 10.2795C9.1839 10.2814 9.16371 10.2828 9.14352 10.2841C9.13423 10.2848 9.12494 10.2856 9.11549 10.286C9.08601 10.2875 9.05637 10.2883 9.02641 10.2883C8.9966 10.2883 8.96696 10.2875 8.93748 10.286C8.92803 10.2856 8.91874 10.2848 8.90929 10.2841C8.8891 10.2828 8.86907 10.2814 8.84904 10.2795C8.83831 10.2783 8.82758 10.2772 8.81684 10.2759C8.7981 10.2737 8.77935 10.2713 8.76077 10.2686C8.75003 10.267 8.73946 10.2655 8.72888 10.2638C8.7095 10.2606 8.69011 10.2569 8.67088 10.253C8.66175 10.2513 8.65246 10.2497 8.64333 10.2477C8.61641 10.242 8.58965 10.2356 8.56322 10.2287C8.5621 10.2284 8.56097 10.228 8.55985 10.2277C8.53214 10.2203 8.50474 10.2123 8.47766 10.2037C8.46917 10.2011 8.461 10.1981 8.45251 10.1954C8.43376 10.1891 8.41518 10.1827 8.39659 10.1758C8.38698 10.1723 8.37737 10.1686 8.36775 10.1647C8.35045 10.158 8.33347 10.1511 8.31648 10.1441C8.30687 10.1399 8.29742 10.1359 8.28796 10.1317C8.27018 10.1239 8.25272 10.1157 8.23541 10.1072C8.22724 10.1034 8.21907 10.0995 8.21106 10.0955C8.18767 10.0838 8.16444 10.0717 8.14169 10.059C8.13992 10.058 8.13816 10.0572 8.1364 10.0563C8.11172 10.0425 8.08753 10.0281 8.06366 10.0132C8.05645 10.0089 8.04956 10.0042 8.04251 9.99973C8.02585 9.98899 8.00919 9.9781 7.99284 9.96688C7.98451 9.96111 7.97634 9.95535 7.96801 9.94958C7.95295 9.93884 7.93805 9.92795 7.92331 9.91689C7.9153 9.9108 7.90713 9.90456 7.89912 9.89831C7.88406 9.88645 7.869 9.87444 7.85426 9.8621C7.84737 9.85633 7.84032 9.85072 7.83343 9.8448C7.8142 9.82845 7.7953 9.81163 7.77671 9.79433C7.77479 9.79256 7.77254 9.79064 7.77062 9.78888C7.74995 9.76949 7.72993 9.74979 7.71022 9.7296C7.70461 9.72383 7.69917 9.7179 7.69356 9.71214C7.67962 9.69756 7.66584 9.68282 7.65238 9.66776C7.64565 9.66022 7.63908 9.65269 7.63251 9.64516C7.62034 9.63107 7.60848 9.61697 7.59663 9.60255C7.59006 9.5947 7.58365 9.58669 7.57724 9.57867C7.56538 9.56361 7.55369 9.54839 7.54231 9.53301C7.53671 9.52548 7.5311 9.51811 7.52565 9.51058C7.51139 9.49088 7.49745 9.47069 7.48383 9.45034C7.48175 9.44714 7.47951 9.44393 7.47726 9.44073C7.46172 9.41702 7.44666 9.39282 7.43208 9.36847C7.42792 9.36158 7.42407 9.35437 7.42007 9.34748C7.40981 9.3297 7.39972 9.31191 7.39011 9.29397C7.38514 9.28484 7.38049 9.2757 7.37569 9.26657C7.3672 9.25007 7.35886 9.23341 7.35085 9.21658C7.34621 9.20697 7.34156 9.19736 7.33707 9.18758C7.32922 9.17044 7.32153 9.15282 7.314 9.13535C7.31016 9.12622 7.30615 9.11725 7.30247 9.10796C7.29366 9.08617 7.28516 9.06406 7.27699 9.04179C7.27523 9.03698 7.27331 9.03217 7.27155 9.02721C7.26193 8.99997 7.2528 8.97257 7.24431 8.94485C7.24191 8.93668 7.23966 8.92851 7.23726 8.92034C7.23293 8.90544 7.22877 8.89022 7.22476 8.875H10.828C10.824 8.89022 10.8199 8.90528 10.8156 8.92034C10.8131 8.92851 10.8111 8.93668 10.8085 8.94485ZM4.73867 4.56099C4.8026 4.46262 4.83656 4.3479 4.83656 4.23078V2.81734C4.83656 2.48329 5.10829 2.21156 5.44234 2.21156H17.5577C17.8917 2.21156 18.1634 2.48329 18.1634 2.81734V4.23078C18.1634 4.3479 18.1974 4.46262 18.2613 4.56099L20.2778 7.66344H2.72202L4.73867 4.56099ZM2.27709 8.875H5.88102C5.87701 8.89022 5.87285 8.90528 5.86852 8.92034C5.86612 8.92851 5.86388 8.93668 5.86147 8.94485C5.85298 8.97257 5.84385 8.99997 5.83424 9.02721C5.83247 9.03217 5.83055 9.03682 5.82879 9.04179C5.82062 9.06406 5.81213 9.08617 5.80331 9.10796C5.79963 9.11725 5.79562 9.12622 5.79178 9.13535C5.78425 9.15282 5.77656 9.17028 5.76855 9.18758C5.76406 9.19736 5.75957 9.20697 5.75493 9.21658C5.74692 9.23341 5.73859 9.25007 5.72993 9.26657C5.72529 9.2757 5.72048 9.28484 5.71568 9.29397C5.70606 9.31207 5.69597 9.3297 5.68571 9.34748C5.68171 9.35437 5.67786 9.36158 5.6737 9.36847C5.65912 9.39282 5.64406 9.41702 5.62852 9.44073C5.62627 9.44393 5.62403 9.44714 5.62195 9.45034C5.60833 9.47069 5.59439 9.49088 5.58013 9.51058C5.57468 9.51811 5.56908 9.52548 5.56347 9.53301C5.55209 9.54839 5.5404 9.56361 5.52854 9.57867C5.52213 9.58669 5.51572 9.5947 5.50916 9.60255C5.4973 9.61697 5.48544 9.63107 5.47327 9.64516C5.4667 9.65269 5.46013 9.66022 5.4534 9.66776C5.43994 9.68282 5.42616 9.69756 5.41222 9.71214C5.40662 9.71806 5.40117 9.72399 5.39556 9.7296C5.37585 9.74979 5.35583 9.76965 5.33516 9.78888C5.33308 9.79064 5.33099 9.79256 5.32907 9.79433C5.31049 9.81163 5.29158 9.82829 5.27235 9.8448C5.26546 9.85072 5.25842 9.85633 5.25153 9.8621C5.23679 9.87444 5.22173 9.88645 5.20667 9.89831C5.19865 9.90456 5.19048 9.9108 5.18247 9.91689C5.16757 9.92795 5.15267 9.93884 5.13761 9.94958C5.12944 9.95535 5.12127 9.96111 5.11294 9.96688C5.0966 9.9781 5.07993 9.98899 5.06327 9.99973C5.05622 10.0042 5.04933 10.0089 5.04212 10.0132C5.01825 10.0281 4.99406 10.0425 4.96938 10.0563C4.96762 10.0572 4.96586 10.058 4.9641 10.059C4.94135 10.0717 4.91811 10.0838 4.89472 10.0955C4.88671 10.0995 4.87854 10.1034 4.87037 10.1072C4.85307 10.1157 4.8356 10.1239 4.81782 10.1317C4.80836 10.1359 4.79891 10.1399 4.7893 10.1441C4.77232 10.1511 4.75533 10.158 4.73803 10.1647C4.72842 10.1686 4.7188 10.1723 4.70919 10.1758C4.69061 10.1827 4.67186 10.1891 4.65311 10.1954C4.64478 10.1981 4.63661 10.2011 4.62812 10.2037C4.60104 10.2123 4.57365 10.2203 4.54593 10.2277C4.54481 10.228 4.54369 10.2284 4.54256 10.2287C4.51597 10.2356 4.48921 10.2418 4.4623 10.2477C4.45332 10.2497 4.44403 10.2513 4.4349 10.253C4.41567 10.2569 4.39629 10.2606 4.3769 10.2638C4.36633 10.2655 4.35575 10.2671 4.34502 10.2686C4.32643 10.2713 4.30769 10.2737 4.28894 10.2759C4.27821 10.2772 4.26763 10.2783 4.25674 10.2795C4.23671 10.2814 4.21668 10.2828 4.1965 10.2841C4.18704 10.2848 4.17775 10.2856 4.1683 10.286C4.13882 10.2876 4.10918 10.2884 4.07938 10.2884C4.04173 10.2884 4.00391 10.287 3.96626 10.2846C3.95937 10.2841 3.95248 10.2838 3.94576 10.2833C3.86661 10.2774 3.78778 10.2666 3.70975 10.2505C3.70895 10.2503 3.70799 10.2501 3.70719 10.25C3.66778 10.2417 3.62852 10.232 3.58943 10.2211C2.95321 10.0433 2.45077 9.52821 2.27709 8.875V8.875ZM4.22197 11.4963C4.23062 11.496 4.23911 11.4957 4.24776 11.4952C4.29311 11.4926 4.33813 11.4891 4.38299 11.4846C4.39164 11.4838 4.40029 11.4829 4.4091 11.4819C4.45509 11.4768 4.50091 11.4712 4.54641 11.464C4.54817 11.4638 4.55009 11.4633 4.55186 11.4632C4.59624 11.4561 4.6403 11.4479 4.6842 11.439C4.69205 11.4374 4.70006 11.4359 4.70807 11.4342C4.75133 11.425 4.79411 11.4149 4.83672 11.404C4.84538 11.4018 4.85387 11.3994 4.86252 11.3971C4.90594 11.3854 4.94904 11.3733 4.99165 11.3598C4.99486 11.3587 4.99806 11.3576 5.00127 11.3566C5.04212 11.3435 5.08266 11.3294 5.12271 11.3146C5.13008 11.3119 5.13745 11.3095 5.14466 11.3066C5.18536 11.2914 5.22541 11.2752 5.2653 11.2582C5.27364 11.2547 5.28197 11.251 5.29046 11.2473C5.33067 11.2297 5.37057 11.2116 5.40982 11.1924C5.41399 11.1903 5.41799 11.1882 5.422 11.1861C5.45949 11.1677 5.49634 11.1485 5.53287 11.1285C5.53928 11.1249 5.54585 11.1214 5.55225 11.1179C5.5899 11.0971 5.62691 11.0753 5.6636 11.0528C5.67146 11.048 5.67931 11.0431 5.68716 11.0381C5.72385 11.0152 5.76022 10.9916 5.79594 10.9673C5.80043 10.9641 5.80492 10.9609 5.8094 10.9578C5.84305 10.9344 5.87637 10.9102 5.90906 10.8856C5.91467 10.8814 5.92027 10.8774 5.92572 10.8732C5.95985 10.8471 5.99333 10.8204 6.02634 10.7928C6.03339 10.7869 6.04044 10.7809 6.04749 10.775C6.08049 10.7471 6.11285 10.7188 6.14458 10.6895C6.14922 10.6853 6.15355 10.6811 6.15804 10.677C6.188 10.6489 6.21764 10.6204 6.24648 10.5911C6.2508 10.5868 6.25529 10.5826 6.25945 10.5783C6.28973 10.5473 6.31937 10.5158 6.34837 10.4836C6.35446 10.4769 6.36039 10.4701 6.36648 10.4632C6.39516 10.431 6.42319 10.3982 6.45059 10.3647C6.45476 10.3596 6.45876 10.3543 6.46293 10.3492C6.48904 10.3166 6.51468 10.2838 6.53951 10.2501C6.54256 10.2461 6.5456 10.2421 6.54865 10.2381C6.55009 10.2362 6.55153 10.2343 6.55297 10.2324C6.55441 10.2343 6.55585 10.236 6.5573 10.2381C6.56034 10.2421 6.56338 10.2461 6.56643 10.2501C6.59126 10.2838 6.6169 10.3168 6.64301 10.3492C6.64718 10.3543 6.65118 10.3596 6.65535 10.3647C6.68275 10.3982 6.71078 10.431 6.73946 10.4632C6.74555 10.4701 6.75148 10.4769 6.75757 10.4836C6.78657 10.5158 6.81621 10.5473 6.84649 10.5783C6.85065 10.5826 6.85514 10.5868 6.85947 10.5911C6.88831 10.6204 6.91779 10.6489 6.94791 10.677C6.95239 10.6811 6.95688 10.6853 6.96136 10.6895C6.99309 10.7188 7.02545 10.7471 7.05846 10.775C7.06535 10.7809 7.0724 10.7869 7.07961 10.7928C7.11261 10.8204 7.1461 10.8471 7.18022 10.8732C7.18567 10.8774 7.19128 10.8814 7.19688 10.8856C7.22957 10.9102 7.26273 10.9344 7.29654 10.9578C7.30103 10.9609 7.30551 10.9641 7.31 10.9673C7.34573 10.9916 7.3821 11.0152 7.41879 11.0381C7.42664 11.0431 7.43449 11.048 7.44234 11.0528C7.47903 11.0753 7.51604 11.0971 7.55369 11.1179C7.5601 11.1214 7.56667 11.1249 7.57307 11.1285C7.6096 11.1485 7.64645 11.1677 7.68378 11.1861C7.68795 11.1882 7.69196 11.1903 7.69612 11.1924C7.73537 11.2116 7.77527 11.2297 7.81548 11.2473C7.82397 11.251 7.83231 11.2547 7.84064 11.2582C7.88037 11.2752 7.92059 11.2914 7.96128 11.3066C7.96849 11.3095 7.97586 11.3121 7.98323 11.3146C8.02328 11.3294 8.06382 11.3435 8.10468 11.3566C8.10788 11.3576 8.11108 11.3587 8.11429 11.3598C8.15691 11.3733 8.2 11.3854 8.24342 11.3971C8.25192 11.3994 8.26057 11.4018 8.26922 11.404C8.31184 11.4149 8.35461 11.425 8.39787 11.4342C8.40588 11.4359 8.41373 11.4374 8.42175 11.439C8.46564 11.4479 8.50954 11.4561 8.55408 11.4632C8.55585 11.4633 8.55777 11.4638 8.55953 11.464C8.60503 11.4712 8.65086 11.4768 8.69684 11.4819C8.70565 11.4827 8.7143 11.4838 8.72295 11.4846C8.76781 11.4891 8.81284 11.4926 8.85818 11.4952C8.86683 11.4957 8.87532 11.496 8.88397 11.4963C8.93124 11.4986 8.97882 11.5 9.02657 11.5C9.07447 11.5 9.12189 11.4986 9.16932 11.4963C9.17781 11.496 9.18646 11.4957 9.19495 11.4952C9.2403 11.4926 9.28532 11.4891 9.33018 11.4846C9.33899 11.4838 9.34764 11.4829 9.35629 11.4819C9.40244 11.4768 9.44826 11.4712 9.49376 11.464C9.49552 11.4638 9.49728 11.4633 9.49921 11.4632C9.54359 11.4561 9.58765 11.4479 9.63139 11.439C9.6394 11.4374 9.64741 11.4359 9.65526 11.4342C9.69852 11.425 9.74146 11.4149 9.78391 11.404C9.79256 11.4018 9.80122 11.3994 9.80987 11.3971C9.85329 11.3854 9.89639 11.3733 9.939 11.3598C9.94221 11.3587 9.94525 11.3576 9.94846 11.3566C9.98947 11.3435 10.0298 11.3294 10.0701 11.3146C10.0773 11.3119 10.0846 11.3095 10.092 11.3066C10.1325 11.2914 10.1728 11.2752 10.2125 11.2582C10.221 11.2547 10.2293 11.251 10.2376 11.2473C10.2779 11.2297 10.3178 11.2116 10.3572 11.1924C10.3612 11.1903 10.3653 11.1882 10.3693 11.1861C10.4067 11.1677 10.4435 11.1485 10.4801 11.1285C10.4866 11.1249 10.4932 11.1214 10.4996 11.1179C10.5371 11.0971 10.5741 11.0753 10.6108 11.0528C10.6188 11.048 10.6265 11.0431 10.6345 11.0381C10.6712 11.0152 10.7076 10.9916 10.7433 10.9673C10.7478 10.9641 10.7523 10.9609 10.7568 10.9578C10.7904 10.9344 10.8236 10.9102 10.8564 10.8856C10.8619 10.8814 10.8675 10.8774 10.8729 10.8732C10.907 10.8471 10.9405 10.8204 10.9737 10.7928C10.9807 10.7869 10.9878 10.7809 10.9948 10.775C11.0277 10.7471 11.0602 10.7188 11.0919 10.6895C11.0964 10.6853 11.1007 10.6811 11.1052 10.677C11.1353 10.6489 11.1648 10.6204 11.1938 10.5911C11.1982 10.5868 11.2025 10.5826 11.2068 10.5783C11.2371 10.5473 11.2666 10.5158 11.2956 10.4836C11.3017 10.4769 11.3077 10.4701 11.3137 10.4632C11.3423 10.431 11.3705 10.3982 11.3979 10.3647C11.4019 10.3596 11.4061 10.3543 11.4101 10.3492C11.4362 10.3166 11.4619 10.2838 11.4867 10.2501C11.4897 10.2461 11.493 10.2421 11.4958 10.2381C11.4973 10.2362 11.4989 10.2343 11.5003 10.2324C11.5016 10.2343 11.5032 10.236 11.5046 10.2381C11.5075 10.2421 11.5107 10.2461 11.5138 10.2501C11.5386 10.2838 11.5641 10.3168 11.5904 10.3492C11.5944 10.3543 11.5985 10.3596 11.6025 10.3647C11.6299 10.3982 11.6581 10.431 11.6868 10.4632C11.6927 10.4701 11.6988 10.4769 11.7049 10.4836C11.7339 10.5158 11.7634 10.5473 11.7937 10.5783C11.798 10.5826 11.8023 10.5868 11.8067 10.5911C11.8357 10.6204 11.8651 10.6489 11.8953 10.677C11.8997 10.6811 11.9041 10.6853 11.9086 10.6895C11.9403 10.7188 11.9728 10.7471 12.0056 10.775L12.0268 10.7928C12.0598 10.8204 12.0934 10.8471 12.1276 10.8732C12.133 10.8774 12.1386 10.8814 12.1441 10.8856C12.1769 10.9102 12.2101 10.9344 12.2437 10.9578C12.2484 10.9609 12.2527 10.9641 12.2572 10.9673C12.2929 10.9916 12.3293 11.0152 12.366 11.0381C12.374 11.0431 12.3818 11.048 12.3897 11.0528C12.4262 11.0753 12.4632 11.0971 12.5009 11.1179C12.5073 11.1214 12.5139 11.1249 12.5204 11.1285C12.557 11.1485 12.5938 11.1677 12.6311 11.1861C12.6351 11.1882 12.6393 11.1903 12.6433 11.1924C12.6827 11.2116 12.7226 11.2297 12.7628 11.2473C12.7712 11.251 12.7795 11.2547 12.788 11.2582C12.8277 11.2752 12.8679 11.2914 12.9085 11.3066C12.9158 11.3095 12.9232 11.3121 12.9304 11.3146C12.9706 11.3294 13.011 11.3435 13.052 11.3566C13.0552 11.3576 13.0584 11.3587 13.0615 11.3598C13.1041 11.3733 13.1472 11.3854 13.1906 11.3971C13.1993 11.3994 13.2078 11.4018 13.2166 11.404C13.259 11.4149 13.302 11.425 13.3452 11.4342C13.3531 11.4359 13.3611 11.4374 13.3691 11.439C13.4128 11.4479 13.4569 11.4561 13.5013 11.4632C13.5032 11.4633 13.505 11.4638 13.5067 11.464C13.5522 11.4712 13.598 11.4768 13.6442 11.4819C13.6528 11.4827 13.6615 11.4838 13.6703 11.4846C13.7152 11.4891 13.7602 11.4926 13.8055 11.4952C13.814 11.4957 13.8227 11.496 13.8312 11.4963C13.8786 11.4986 13.926 11.5 13.9739 11.5C14.0217 11.5 14.0692 11.4986 14.1165 11.4963C14.1252 11.496 14.1337 11.4957 14.1423 11.4952C14.1876 11.4926 14.2327 11.4891 14.2775 11.4846C14.2862 11.4838 14.2948 11.4829 14.3036 11.4819C14.3496 11.4768 14.3956 11.4712 14.4409 11.464C14.4427 11.4638 14.4446 11.4633 14.4464 11.4632C14.4908 11.4561 14.5348 11.4479 14.5787 11.439C14.5867 11.4374 14.5946 11.4359 14.6026 11.4342C14.6459 11.425 14.6888 11.4149 14.7313 11.404C14.7399 11.4018 14.7486 11.3994 14.7572 11.3971C14.8005 11.3854 14.8436 11.3733 14.8862 11.3598C14.8894 11.3587 14.8926 11.3576 14.8958 11.3566C14.9367 11.3435 14.9772 11.3294 15.0173 11.3146C15.0246 11.3119 15.032 11.3095 15.0392 11.3066C15.0799 11.2914 15.1201 11.2752 15.1598 11.2582C15.1682 11.2547 15.1765 11.251 15.185 11.2473C15.2252 11.2297 15.2651 11.2116 15.3044 11.1924C15.3085 11.1903 15.3125 11.1882 15.3167 11.1861C15.354 11.1677 15.3909 11.1485 15.4274 11.1285C15.4338 11.1249 15.4404 11.1214 15.4468 11.1179C15.4844 11.0971 15.5215 11.0753 15.5581 11.0528C15.566 11.048 15.5738 11.0431 15.5817 11.0381C15.6184 11.0152 15.6548 10.9916 15.6905 10.9673C15.695 10.9641 15.6995 10.9609 15.7039 10.9578C15.7377 10.9344 15.7709 10.9102 15.8036 10.8856C15.8092 10.8814 15.8148 10.8774 15.8203 10.8732C15.8544 10.8471 15.8879 10.8204 15.9209 10.7928C15.9281 10.7869 15.935 10.7809 15.9422 10.775C15.975 10.7471 16.0074 10.7188 16.0391 10.6895C16.0438 10.6853 16.0481 10.6811 16.0526 10.677C16.0825 10.6489 16.1122 10.6204 16.141 10.5911C16.1453 10.5868 16.1498 10.5826 16.154 10.5783C16.1843 10.5473 16.2139 10.5158 16.2429 10.4836C16.249 10.4769 16.2549 10.4701 16.261 10.4632C16.2897 10.431 16.3177 10.3982 16.3451 10.3647C16.3493 10.3596 16.3533 10.3543 16.3575 10.3492C16.3836 10.3166 16.4092 10.2838 16.4341 10.2501C16.4371 10.2461 16.4401 10.2421 16.4432 10.2381C16.4446 10.2362 16.4461 10.2343 16.4475 10.2324C16.449 10.2343 16.4504 10.236 16.4518 10.2381C16.4549 10.2421 16.4579 10.2461 16.461 10.2501C16.486 10.2838 16.5114 10.3168 16.5376 10.3492C16.5417 10.3543 16.5457 10.3596 16.5499 10.3647C16.5773 10.3982 16.6053 10.431 16.634 10.4632C16.6401 10.4701 16.646 10.4769 16.6523 10.4836C16.6811 10.5158 16.7107 10.5473 16.741 10.5783C16.7454 10.5826 16.7497 10.5868 16.754 10.5911C16.7828 10.6204 16.8123 10.6489 16.8424 10.677C16.8469 10.6811 16.8514 10.6853 16.8559 10.6895C16.8876 10.7188 16.92 10.7471 16.953 10.775C16.9599 10.7809 16.9671 10.7869 16.9741 10.7928C17.0071 10.8204 17.0406 10.8471 17.0748 10.8732C17.0802 10.8774 17.0858 10.8814 17.0914 10.8856C17.1241 10.9102 17.1574 10.9344 17.1911 10.9578C17.1956 10.9609 17.2001 10.9641 17.2045 10.9673C17.2403 10.9916 17.2766 11.0152 17.3133 11.0381C17.3212 11.0431 17.329 11.048 17.3369 11.0528C17.3736 11.0753 17.4106 11.0971 17.4482 11.1179C17.4546 11.1214 17.4612 11.1249 17.4676 11.1285C17.5041 11.1485 17.541 11.1677 17.5785 11.1861C17.5825 11.1882 17.5865 11.1903 17.5907 11.1924C17.6299 11.2116 17.6698 11.2297 17.7102 11.2473C17.7185 11.251 17.7268 11.2547 17.7352 11.2582C17.7751 11.2752 17.8151 11.2914 17.8558 11.3066C17.863 11.3095 17.8704 11.3121 17.8778 11.3146C17.9178 11.3294 17.9584 11.3435 17.9992 11.3566C18.0024 11.3576 18.0056 11.3587 18.0088 11.3598C18.0514 11.3733 18.0945 11.3854 18.138 11.3971C18.1466 11.3994 18.1551 11.4018 18.1638 11.404C18.2064 11.4149 18.2493 11.425 18.2924 11.4342C18.3004 11.4359 18.3084 11.4374 18.3163 11.439C18.3602 11.4479 18.4041 11.4561 18.4486 11.4632C18.4504 11.4633 18.4523 11.4638 18.4541 11.464C18.4996 11.4712 18.5454 11.4768 18.5915 11.4819C18.6002 11.4827 18.6088 11.4838 18.6175 11.4846C18.6624 11.4891 18.7074 11.4926 18.7527 11.4952C18.7614 11.4957 18.7699 11.496 18.7785 11.4963C18.8258 11.4986 18.8734 11.5 18.9211 11.5C18.9379 11.5 18.9548 11.4998 18.9716 11.4995V18.1634H10.8942V14.3269C10.8942 13.3249 10.079 12.5097 9.07687 12.5097H7.46156C6.4594 12.5097 5.64422 13.3249 5.64422 14.3269V18.1634H4.02891V11.4995C4.04573 11.4998 4.06255 11.5 4.07938 11.5C4.12712 11.5 4.17471 11.4986 4.22197 11.4963V11.4963ZM9.68266 18.1634H6.85578V14.3269C6.85578 13.993 7.12751 13.7211 7.46156 13.7211H9.07687C9.41093 13.7211 9.68266 13.993 9.68266 14.3269V18.1634ZM20.0817 20.7884H2.91828C2.52863 20.7884 2.21156 20.4714 2.21156 20.0817C2.21156 19.6921 2.52863 19.375 2.91828 19.375H20.0817C20.4714 19.375 20.7884 19.6921 20.7884 20.0817C20.7884 20.4714 20.4714 20.7884 20.0817 20.7884Z"/>
</mask>
<path d="M20.1827 18.1662V11.2239C21.2529 10.733 22 9.63908 22 8.37016C22 8.34837 21.9992 8.3269 21.9987 8.30527C22.0064 8.17693 21.9731 8.04748 21.9007 7.93693C21.9003 7.93645 21.9 7.93597 21.8997 7.93549L20.4922 5.76999C20.4893 5.7655 20.4864 5.76086 20.4835 5.75637L19.375 4.05118V2.81734C19.375 1.81519 18.5598 1 17.5577 1H5.44234C4.44019 1 3.625 1.81519 3.625 2.81734V4.05118L1.1003 7.93549C1.09998 7.93613 1.09966 7.93677 1.09933 7.93725C1.02868 8.04507 0.995995 8.17036 1.00144 8.29469C1.0008 8.31985 1 8.34484 1 8.37016C1 9.63908 1.74709 10.733 2.81734 11.2239V18.1662C1.80637 18.2189 1 19.0579 1 20.0817C1 21.1395 1.86053 22 2.91828 22H20.0817C21.1395 22 22 21.1395 22 20.0817C22 19.0579 21.1936 18.2189 20.1827 18.1662V18.1662ZM19.4106 10.2211C19.3715 10.232 19.3322 10.2417 19.2928 10.2498C19.292 10.25 19.291 10.2501 19.2902 10.2505C19.2122 10.2666 19.1334 10.2774 19.0542 10.2831C19.0475 10.2836 19.0405 10.2841 19.0337 10.2846C18.9961 10.2868 18.9584 10.2884 18.9206 10.2884C18.8908 10.2884 18.8612 10.2875 18.8317 10.2862C18.8223 10.2857 18.813 10.2849 18.8035 10.2843C18.7833 10.283 18.7633 10.2815 18.7433 10.2795C18.7325 10.2785 18.7218 10.2772 18.7111 10.2761C18.6923 10.2739 18.6736 10.2715 18.655 10.2687C18.6442 10.2671 18.6337 10.2655 18.6231 10.2638C18.6037 10.2606 18.5843 10.257 18.5651 10.2532C18.556 10.2514 18.5467 10.2497 18.5377 10.2477C18.5106 10.242 18.484 10.2357 18.4574 10.2287C18.4563 10.2284 18.4552 10.2282 18.4541 10.2279C18.4264 10.2205 18.399 10.2125 18.3719 10.2038C18.3634 10.2011 18.3552 10.1982 18.3469 10.1954C18.328 10.1893 18.3094 10.1829 18.2908 10.176C18.2812 10.1723 18.2716 10.1686 18.262 10.1649C18.2448 10.1582 18.2277 10.1513 18.2107 10.1441C18.2011 10.1401 18.1916 10.1361 18.1822 10.1317C18.1644 10.1241 18.1469 10.1157 18.1296 10.1074C18.1215 10.1034 18.1133 10.0997 18.1053 10.0957C18.0819 10.0838 18.0587 10.0718 18.0359 10.0592C18.0341 10.0582 18.0324 10.0572 18.0306 10.0563C18.0059 10.0425 17.9818 10.0281 17.9579 10.0133C17.9508 10.0089 17.9438 10.0042 17.9367 9.99973C17.9201 9.98899 17.9034 9.97826 17.8871 9.96688C17.8787 9.96127 17.8706 9.95551 17.8624 9.94958C17.8473 9.939 17.8324 9.92811 17.8175 9.91689C17.8095 9.9108 17.8013 9.90472 17.7933 9.89847C17.7783 9.88661 17.7632 9.87444 17.7485 9.86226C17.7416 9.85649 17.7345 9.85072 17.7276 9.84496C17.7084 9.82845 17.6895 9.81163 17.6709 9.79449C17.669 9.79256 17.6668 9.7908 17.6648 9.78888C17.6442 9.76965 17.6241 9.74979 17.6044 9.72976C17.5988 9.72399 17.5934 9.71806 17.5878 9.7123C17.5738 9.69756 17.5601 9.68282 17.5466 9.66776C17.5399 9.66039 17.5333 9.65269 17.5267 9.64516C17.5147 9.63123 17.5027 9.61697 17.4908 9.60271C17.4843 9.5947 17.4779 9.58685 17.4715 9.57867C17.4596 9.56377 17.4479 9.54839 17.4365 9.53301C17.4309 9.52564 17.4253 9.51827 17.4199 9.51074C17.4056 9.49088 17.3917 9.47069 17.3781 9.45034C17.376 9.44714 17.3737 9.44409 17.3715 9.44089C17.3559 9.41718 17.3409 9.39298 17.3263 9.36847C17.3221 9.36158 17.3183 9.35453 17.3143 9.34748C17.304 9.32986 17.2939 9.31207 17.2843 9.29397C17.2794 9.285 17.2747 9.2757 17.2701 9.26657C17.2614 9.25007 17.2531 9.23357 17.2451 9.21674C17.2404 9.20713 17.2359 9.19736 17.2315 9.18774C17.2234 9.17044 17.2158 9.15298 17.2082 9.13535C17.2044 9.12622 17.2004 9.11725 17.1967 9.10812C17.1879 9.08617 17.1794 9.06406 17.1712 9.04195C17.1694 9.03698 17.1675 9.03217 17.1658 9.02721C17.1562 9.00013 17.147 8.97257 17.1385 8.94501C17.1361 8.93684 17.1339 8.92867 17.1315 8.9205C17.1272 8.90544 17.123 8.89022 17.119 8.87516H20.7229C20.5492 9.52821 20.0468 10.0433 19.4106 10.2211V10.2211ZM15.7557 8.94485C15.7472 8.97257 15.7381 8.99997 15.7285 9.02721C15.7267 9.03217 15.7248 9.03682 15.723 9.04179C15.7148 9.06406 15.7063 9.08617 15.6975 9.10796C15.6938 9.11725 15.6898 9.12622 15.686 9.13535C15.6785 9.15282 15.6708 9.17028 15.6629 9.18758C15.6584 9.19736 15.6538 9.20697 15.6491 9.21658C15.6411 9.23341 15.6328 9.25007 15.6243 9.26657C15.6195 9.2757 15.6149 9.28484 15.6099 9.29397C15.6003 9.31207 15.5902 9.3297 15.5799 9.34748C15.5759 9.35437 15.5721 9.36158 15.5679 9.36847C15.5533 9.39282 15.5383 9.41702 15.5227 9.44073C15.5205 9.44393 15.5182 9.44714 15.5162 9.45034C15.5025 9.47069 15.4886 9.49088 15.4743 9.51058C15.4689 9.51811 15.4633 9.52548 15.4577 9.53301C15.4463 9.54839 15.4346 9.56361 15.4228 9.57867C15.4164 9.58669 15.4099 9.5947 15.4034 9.60255C15.3915 9.61697 15.3797 9.63107 15.3675 9.64516C15.3609 9.65269 15.3543 9.66022 15.3476 9.66776C15.3342 9.68282 15.3204 9.69756 15.3064 9.71214C15.3008 9.71806 15.2954 9.72399 15.2898 9.7296C15.2701 9.74979 15.25 9.76965 15.2294 9.78888C15.2275 9.79064 15.2252 9.79256 15.2233 9.79433C15.2047 9.81163 15.1858 9.82829 15.1666 9.8448C15.1597 9.85072 15.1526 9.85633 15.1457 9.8621C15.131 9.87444 15.1159 9.88645 15.1009 9.89831C15.0929 9.90456 15.0847 9.9108 15.0767 9.91689C15.062 9.92795 15.0471 9.93884 15.032 9.94958C15.0237 9.95535 15.0155 9.96111 15.0072 9.96688C14.9908 9.9781 14.9742 9.98899 14.9575 9.99973C14.9504 10.0042 14.9436 10.0089 14.9363 10.0132C14.9125 10.0281 14.8883 10.0425 14.8636 10.0563C14.8618 10.0572 14.8601 10.058 14.8583 10.059C14.8356 10.0717 14.8123 10.0838 14.7889 10.0955C14.7809 10.0995 14.7728 10.1034 14.7646 10.1072C14.7473 10.1157 14.7298 10.1239 14.712 10.1317C14.7026 10.1359 14.6931 10.1399 14.6835 10.1441C14.6665 10.1511 14.6496 10.158 14.6322 10.1647C14.6226 10.1686 14.613 10.1723 14.6034 10.1758C14.5848 10.1827 14.5662 10.1891 14.5475 10.1954C14.539 10.1981 14.5308 10.2011 14.5223 10.2037C14.4953 10.2123 14.4679 10.2203 14.4401 10.2277C14.439 10.228 14.4379 10.2284 14.4368 10.2287C14.4102 10.2356 14.3834 10.2418 14.3567 10.2477C14.3475 10.2497 14.3382 10.2513 14.3291 10.253C14.3099 10.2569 14.2905 10.2606 14.2711 10.2638C14.2605 10.2655 14.25 10.2671 14.2392 10.2686C14.2206 10.2713 14.2019 10.2737 14.1832 10.2759C14.1724 10.2772 14.1619 10.2783 14.151 10.2795C14.1311 10.2814 14.1109 10.2828 14.0907 10.2841C14.0813 10.2848 14.072 10.2856 14.0625 10.286C14.033 10.2875 14.0034 10.2883 13.9736 10.2883C13.9436 10.2883 13.914 10.2875 13.8845 10.286C13.8751 10.2856 13.8658 10.2848 13.8565 10.2841C13.8363 10.2828 13.8161 10.2814 13.7961 10.2795C13.7853 10.2783 13.7746 10.2772 13.764 10.2759C13.7451 10.2737 13.7264 10.2713 13.7078 10.2686C13.6972 10.267 13.6866 10.2655 13.6761 10.2638C13.6565 10.2606 13.6373 10.2569 13.6179 10.253C13.6088 10.2513 13.5996 10.2497 13.5905 10.2477C13.5636 10.242 13.5368 10.2356 13.5104 10.2287C13.5093 10.2284 13.5082 10.228 13.5069 10.2277C13.4793 10.2203 13.4519 10.2123 13.4247 10.2037C13.4164 10.2011 13.408 10.1981 13.3997 10.1954C13.381 10.1891 13.3622 10.1827 13.3438 10.1758C13.334 10.1723 13.3244 10.1686 13.3148 10.1647C13.2976 10.158 13.2805 10.1511 13.2635 10.1441C13.2541 10.1399 13.2444 10.1359 13.235 10.1317C13.2174 10.1239 13.1999 10.1157 13.1824 10.1072C13.1743 10.1034 13.1661 10.0995 13.1581 10.0955C13.1347 10.0838 13.1116 10.0717 13.0887 10.059C13.0871 10.058 13.0852 10.0572 13.0834 10.0563C13.0589 10.0425 13.0347 10.0281 13.0107 10.0132C13.0036 10.0089 12.9967 10.0042 12.9897 9.99973C12.9729 9.98899 12.9564 9.9781 12.9399 9.96688C12.9315 9.96111 12.9234 9.95535 12.9152 9.94958C12.9001 9.93884 12.8852 9.92795 12.8705 9.91689C12.8623 9.9108 12.8543 9.90456 12.8463 9.89831C12.8311 9.88645 12.8162 9.87444 12.8014 9.8621C12.7944 9.85633 12.7873 9.85072 12.7806 9.8448C12.7614 9.82845 12.7425 9.81163 12.7239 9.79433C12.7218 9.79256 12.7197 9.79064 12.7177 9.78888C12.6971 9.76949 12.677 9.74979 12.6572 9.7296C12.6516 9.72383 12.6462 9.7179 12.6407 9.71214C12.6268 9.69756 12.6129 9.68282 12.5994 9.66776C12.5928 9.66022 12.5863 9.65269 12.5797 9.64516C12.5675 9.63107 12.5555 9.61697 12.5438 9.60255C12.5372 9.5947 12.5308 9.58669 12.5244 9.57867C12.5124 9.56361 12.5009 9.54839 12.4893 9.53301C12.4839 9.52548 12.4783 9.51811 12.4728 9.51058C12.4584 9.49088 12.4445 9.47069 12.431 9.45034C12.4288 9.44714 12.4265 9.44393 12.4245 9.44073C12.4089 9.41702 12.3939 9.39282 12.3793 9.36847C12.3751 9.36158 12.3713 9.35437 12.3673 9.34748C12.3568 9.3297 12.3469 9.31191 12.3371 9.29397C12.3323 9.28484 12.3275 9.2757 12.3229 9.26657C12.3144 9.25007 12.3061 9.23341 12.2979 9.21658C12.2932 9.20697 12.2887 9.19736 12.2843 9.18758C12.2763 9.17044 12.2686 9.15282 12.2612 9.13535C12.2573 9.12622 12.2533 9.11725 12.2497 9.10796C12.2407 9.08617 12.2322 9.06406 12.2242 9.04179C12.2224 9.03698 12.2203 9.03217 12.2186 9.02721C12.209 8.99997 12.2 8.97257 12.1915 8.94485C12.1889 8.93668 12.1869 8.92851 12.1844 8.92034C12.18 8.90544 12.176 8.89022 12.172 8.875H15.7752C15.7712 8.89022 15.7671 8.90528 15.7627 8.92034C15.7603 8.92851 15.7581 8.93668 15.7557 8.94485ZM10.8085 8.94485C10.8 8.97257 10.791 8.99997 10.7814 9.02721C10.7797 9.03217 10.7776 9.03682 10.7758 9.04179C10.7678 9.06406 10.7593 9.08617 10.7503 9.10796C10.7467 9.11725 10.7427 9.12622 10.7388 9.13535C10.7314 9.15282 10.7237 9.17028 10.7157 9.18758C10.7113 9.19736 10.7068 9.20697 10.7021 9.21658C10.6939 9.23341 10.6856 9.25007 10.6771 9.26657C10.6725 9.2757 10.6677 9.28484 10.6629 9.29397C10.6531 9.31207 10.6432 9.3297 10.6327 9.34748C10.6287 9.35437 10.6249 9.36158 10.6207 9.36847C10.6061 9.39282 10.5912 9.41702 10.5755 9.44073C10.5735 9.44393 10.5712 9.44714 10.569 9.45034C10.5555 9.47069 10.5416 9.49088 10.5272 9.51058C10.5219 9.51811 10.5161 9.52548 10.5107 9.53301C10.4991 9.54839 10.4876 9.56361 10.4756 9.57867C10.4692 9.58669 10.4628 9.5947 10.4562 9.60255C10.4445 9.61697 10.4325 9.63107 10.4203 9.64516C10.4137 9.65269 10.4072 9.66022 10.4006 9.66776C10.3871 9.68282 10.3732 9.69756 10.3593 9.71214C10.3538 9.71806 10.3484 9.72399 10.3428 9.7296C10.323 9.74979 10.3029 9.76965 10.2823 9.78888C10.2803 9.79064 10.2782 9.79256 10.2761 9.79433C10.2575 9.81163 10.2386 9.82829 10.2194 9.8448C10.2127 9.85072 10.2056 9.85633 10.1986 9.8621C10.1838 9.87444 10.1689 9.88645 10.1537 9.89831C10.1457 9.90456 10.1377 9.9108 10.1295 9.91689C10.1148 9.92795 10.0999 9.93884 10.0848 9.94958C10.0766 9.95535 10.0685 9.96111 10.0601 9.96688C10.0436 9.9781 10.0271 9.98899 10.0103 9.99973C10.0033 10.0042 9.99636 10.0089 9.98931 10.0132C9.96528 10.0281 9.94109 10.0425 9.91657 10.0563C9.91481 10.0572 9.91289 10.058 9.91129 10.059C9.88837 10.0717 9.8653 10.0838 9.84191 10.0955C9.8339 10.0995 9.82573 10.1034 9.81756 10.1072C9.80009 10.1157 9.78263 10.1239 9.76501 10.1317C9.75555 10.1359 9.74594 10.1399 9.73649 10.1441C9.71951 10.1511 9.70236 10.158 9.68522 10.1647C9.67561 10.1686 9.66599 10.1723 9.65622 10.1758C9.63779 10.1827 9.61905 10.1891 9.6003 10.1954C9.59197 10.1981 9.58364 10.2011 9.57531 10.2037C9.54807 10.2123 9.52068 10.2203 9.49312 10.2277C9.49184 10.228 9.49072 10.2284 9.48959 10.2287C9.46316 10.2356 9.4364 10.2418 9.40948 10.2477C9.40035 10.2497 9.39122 10.2513 9.38209 10.253C9.3627 10.2569 9.34348 10.2606 9.32393 10.2638C9.31335 10.2655 9.30278 10.2671 9.29221 10.2686C9.27362 10.2713 9.25488 10.2737 9.23597 10.2759C9.2254 10.2772 9.21466 10.2783 9.20393 10.2795C9.1839 10.2814 9.16371 10.2828 9.14352 10.2841C9.13423 10.2848 9.12494 10.2856 9.11549 10.286C9.08601 10.2875 9.05637 10.2883 9.02641 10.2883C8.9966 10.2883 8.96696 10.2875 8.93748 10.286C8.92803 10.2856 8.91874 10.2848 8.90929 10.2841C8.8891 10.2828 8.86907 10.2814 8.84904 10.2795C8.83831 10.2783 8.82758 10.2772 8.81684 10.2759C8.7981 10.2737 8.77935 10.2713 8.76077 10.2686C8.75003 10.267 8.73946 10.2655 8.72888 10.2638C8.7095 10.2606 8.69011 10.2569 8.67088 10.253C8.66175 10.2513 8.65246 10.2497 8.64333 10.2477C8.61641 10.242 8.58965 10.2356 8.56322 10.2287C8.5621 10.2284 8.56097 10.228 8.55985 10.2277C8.53214 10.2203 8.50474 10.2123 8.47766 10.2037C8.46917 10.2011 8.461 10.1981 8.45251 10.1954C8.43376 10.1891 8.41518 10.1827 8.39659 10.1758C8.38698 10.1723 8.37737 10.1686 8.36775 10.1647C8.35045 10.158 8.33347 10.1511 8.31648 10.1441C8.30687 10.1399 8.29742 10.1359 8.28796 10.1317C8.27018 10.1239 8.25272 10.1157 8.23541 10.1072C8.22724 10.1034 8.21907 10.0995 8.21106 10.0955C8.18767 10.0838 8.16444 10.0717 8.14169 10.059C8.13992 10.058 8.13816 10.0572 8.1364 10.0563C8.11172 10.0425 8.08753 10.0281 8.06366 10.0132C8.05645 10.0089 8.04956 10.0042 8.04251 9.99973C8.02585 9.98899 8.00919 9.9781 7.99284 9.96688C7.98451 9.96111 7.97634 9.95535 7.96801 9.94958C7.95295 9.93884 7.93805 9.92795 7.92331 9.91689C7.9153 9.9108 7.90713 9.90456 7.89912 9.89831C7.88406 9.88645 7.869 9.87444 7.85426 9.8621C7.84737 9.85633 7.84032 9.85072 7.83343 9.8448C7.8142 9.82845 7.7953 9.81163 7.77671 9.79433C7.77479 9.79256 7.77254 9.79064 7.77062 9.78888C7.74995 9.76949 7.72993 9.74979 7.71022 9.7296C7.70461 9.72383 7.69917 9.7179 7.69356 9.71214C7.67962 9.69756 7.66584 9.68282 7.65238 9.66776C7.64565 9.66022 7.63908 9.65269 7.63251 9.64516C7.62034 9.63107 7.60848 9.61697 7.59663 9.60255C7.59006 9.5947 7.58365 9.58669 7.57724 9.57867C7.56538 9.56361 7.55369 9.54839 7.54231 9.53301C7.53671 9.52548 7.5311 9.51811 7.52565 9.51058C7.51139 9.49088 7.49745 9.47069 7.48383 9.45034C7.48175 9.44714 7.47951 9.44393 7.47726 9.44073C7.46172 9.41702 7.44666 9.39282 7.43208 9.36847C7.42792 9.36158 7.42407 9.35437 7.42007 9.34748C7.40981 9.3297 7.39972 9.31191 7.39011 9.29397C7.38514 9.28484 7.38049 9.2757 7.37569 9.26657C7.3672 9.25007 7.35886 9.23341 7.35085 9.21658C7.34621 9.20697 7.34156 9.19736 7.33707 9.18758C7.32922 9.17044 7.32153 9.15282 7.314 9.13535C7.31016 9.12622 7.30615 9.11725 7.30247 9.10796C7.29366 9.08617 7.28516 9.06406 7.27699 9.04179C7.27523 9.03698 7.27331 9.03217 7.27155 9.02721C7.26193 8.99997 7.2528 8.97257 7.24431 8.94485C7.24191 8.93668 7.23966 8.92851 7.23726 8.92034C7.23293 8.90544 7.22877 8.89022 7.22476 8.875H10.828C10.824 8.89022 10.8199 8.90528 10.8156 8.92034C10.8131 8.92851 10.8111 8.93668 10.8085 8.94485ZM4.73867 4.56099C4.8026 4.46262 4.83656 4.3479 4.83656 4.23078V2.81734C4.83656 2.48329 5.10829 2.21156 5.44234 2.21156H17.5577C17.8917 2.21156 18.1634 2.48329 18.1634 2.81734V4.23078C18.1634 4.3479 18.1974 4.46262 18.2613 4.56099L20.2778 7.66344H2.72202L4.73867 4.56099ZM2.27709 8.875H5.88102C5.87701 8.89022 5.87285 8.90528 5.86852 8.92034C5.86612 8.92851 5.86388 8.93668 5.86147 8.94485C5.85298 8.97257 5.84385 8.99997 5.83424 9.02721C5.83247 9.03217 5.83055 9.03682 5.82879 9.04179C5.82062 9.06406 5.81213 9.08617 5.80331 9.10796C5.79963 9.11725 5.79562 9.12622 5.79178 9.13535C5.78425 9.15282 5.77656 9.17028 5.76855 9.18758C5.76406 9.19736 5.75957 9.20697 5.75493 9.21658C5.74692 9.23341 5.73859 9.25007 5.72993 9.26657C5.72529 9.2757 5.72048 9.28484 5.71568 9.29397C5.70606 9.31207 5.69597 9.3297 5.68571 9.34748C5.68171 9.35437 5.67786 9.36158 5.6737 9.36847C5.65912 9.39282 5.64406 9.41702 5.62852 9.44073C5.62627 9.44393 5.62403 9.44714 5.62195 9.45034C5.60833 9.47069 5.59439 9.49088 5.58013 9.51058C5.57468 9.51811 5.56908 9.52548 5.56347 9.53301C5.55209 9.54839 5.5404 9.56361 5.52854 9.57867C5.52213 9.58669 5.51572 9.5947 5.50916 9.60255C5.4973 9.61697 5.48544 9.63107 5.47327 9.64516C5.4667 9.65269 5.46013 9.66022 5.4534 9.66776C5.43994 9.68282 5.42616 9.69756 5.41222 9.71214C5.40662 9.71806 5.40117 9.72399 5.39556 9.7296C5.37585 9.74979 5.35583 9.76965 5.33516 9.78888C5.33308 9.79064 5.33099 9.79256 5.32907 9.79433C5.31049 9.81163 5.29158 9.82829 5.27235 9.8448C5.26546 9.85072 5.25842 9.85633 5.25153 9.8621C5.23679 9.87444 5.22173 9.88645 5.20667 9.89831C5.19865 9.90456 5.19048 9.9108 5.18247 9.91689C5.16757 9.92795 5.15267 9.93884 5.13761 9.94958C5.12944 9.95535 5.12127 9.96111 5.11294 9.96688C5.0966 9.9781 5.07993 9.98899 5.06327 9.99973C5.05622 10.0042 5.04933 10.0089 5.04212 10.0132C5.01825 10.0281 4.99406 10.0425 4.96938 10.0563C4.96762 10.0572 4.96586 10.058 4.9641 10.059C4.94135 10.0717 4.91811 10.0838 4.89472 10.0955C4.88671 10.0995 4.87854 10.1034 4.87037 10.1072C4.85307 10.1157 4.8356 10.1239 4.81782 10.1317C4.80836 10.1359 4.79891 10.1399 4.7893 10.1441C4.77232 10.1511 4.75533 10.158 4.73803 10.1647C4.72842 10.1686 4.7188 10.1723 4.70919 10.1758C4.69061 10.1827 4.67186 10.1891 4.65311 10.1954C4.64478 10.1981 4.63661 10.2011 4.62812 10.2037C4.60104 10.2123 4.57365 10.2203 4.54593 10.2277C4.54481 10.228 4.54369 10.2284 4.54256 10.2287C4.51597 10.2356 4.48921 10.2418 4.4623 10.2477C4.45332 10.2497 4.44403 10.2513 4.4349 10.253C4.41567 10.2569 4.39629 10.2606 4.3769 10.2638C4.36633 10.2655 4.35575 10.2671 4.34502 10.2686C4.32643 10.2713 4.30769 10.2737 4.28894 10.2759C4.27821 10.2772 4.26763 10.2783 4.25674 10.2795C4.23671 10.2814 4.21668 10.2828 4.1965 10.2841C4.18704 10.2848 4.17775 10.2856 4.1683 10.286C4.13882 10.2876 4.10918 10.2884 4.07938 10.2884C4.04173 10.2884 4.00391 10.287 3.96626 10.2846C3.95937 10.2841 3.95248 10.2838 3.94576 10.2833C3.86661 10.2774 3.78778 10.2666 3.70975 10.2505C3.70895 10.2503 3.70799 10.2501 3.70719 10.25C3.66778 10.2417 3.62852 10.232 3.58943 10.2211C2.95321 10.0433 2.45077 9.52821 2.27709 8.875V8.875ZM4.22197 11.4963C4.23062 11.496 4.23911 11.4957 4.24776 11.4952C4.29311 11.4926 4.33813 11.4891 4.38299 11.4846C4.39164 11.4838 4.40029 11.4829 4.4091 11.4819C4.45509 11.4768 4.50091 11.4712 4.54641 11.464C4.54817 11.4638 4.55009 11.4633 4.55186 11.4632C4.59624 11.4561 4.6403 11.4479 4.6842 11.439C4.69205 11.4374 4.70006 11.4359 4.70807 11.4342C4.75133 11.425 4.79411 11.4149 4.83672 11.404C4.84538 11.4018 4.85387 11.3994 4.86252 11.3971C4.90594 11.3854 4.94904 11.3733 4.99165 11.3598C4.99486 11.3587 4.99806 11.3576 5.00127 11.3566C5.04212 11.3435 5.08266 11.3294 5.12271 11.3146C5.13008 11.3119 5.13745 11.3095 5.14466 11.3066C5.18536 11.2914 5.22541 11.2752 5.2653 11.2582C5.27364 11.2547 5.28197 11.251 5.29046 11.2473C5.33067 11.2297 5.37057 11.2116 5.40982 11.1924C5.41399 11.1903 5.41799 11.1882 5.422 11.1861C5.45949 11.1677 5.49634 11.1485 5.53287 11.1285C5.53928 11.1249 5.54585 11.1214 5.55225 11.1179C5.5899 11.0971 5.62691 11.0753 5.6636 11.0528C5.67146 11.048 5.67931 11.0431 5.68716 11.0381C5.72385 11.0152 5.76022 10.9916 5.79594 10.9673C5.80043 10.9641 5.80492 10.9609 5.8094 10.9578C5.84305 10.9344 5.87637 10.9102 5.90906 10.8856C5.91467 10.8814 5.92027 10.8774 5.92572 10.8732C5.95985 10.8471 5.99333 10.8204 6.02634 10.7928C6.03339 10.7869 6.04044 10.7809 6.04749 10.775C6.08049 10.7471 6.11285 10.7188 6.14458 10.6895C6.14922 10.6853 6.15355 10.6811 6.15804 10.677C6.188 10.6489 6.21764 10.6204 6.24648 10.5911C6.2508 10.5868 6.25529 10.5826 6.25945 10.5783C6.28973 10.5473 6.31937 10.5158 6.34837 10.4836C6.35446 10.4769 6.36039 10.4701 6.36648 10.4632C6.39516 10.431 6.42319 10.3982 6.45059 10.3647C6.45476 10.3596 6.45876 10.3543 6.46293 10.3492C6.48904 10.3166 6.51468 10.2838 6.53951 10.2501C6.54256 10.2461 6.5456 10.2421 6.54865 10.2381C6.55009 10.2362 6.55153 10.2343 6.55297 10.2324C6.55441 10.2343 6.55585 10.236 6.5573 10.2381C6.56034 10.2421 6.56338 10.2461 6.56643 10.2501C6.59126 10.2838 6.6169 10.3168 6.64301 10.3492C6.64718 10.3543 6.65118 10.3596 6.65535 10.3647C6.68275 10.3982 6.71078 10.431 6.73946 10.4632C6.74555 10.4701 6.75148 10.4769 6.75757 10.4836C6.78657 10.5158 6.81621 10.5473 6.84649 10.5783C6.85065 10.5826 6.85514 10.5868 6.85947 10.5911C6.88831 10.6204 6.91779 10.6489 6.94791 10.677C6.95239 10.6811 6.95688 10.6853 6.96136 10.6895C6.99309 10.7188 7.02545 10.7471 7.05846 10.775C7.06535 10.7809 7.0724 10.7869 7.07961 10.7928C7.11261 10.8204 7.1461 10.8471 7.18022 10.8732C7.18567 10.8774 7.19128 10.8814 7.19688 10.8856C7.22957 10.9102 7.26273 10.9344 7.29654 10.9578C7.30103 10.9609 7.30551 10.9641 7.31 10.9673C7.34573 10.9916 7.3821 11.0152 7.41879 11.0381C7.42664 11.0431 7.43449 11.048 7.44234 11.0528C7.47903 11.0753 7.51604 11.0971 7.55369 11.1179C7.5601 11.1214 7.56667 11.1249 7.57307 11.1285C7.6096 11.1485 7.64645 11.1677 7.68378 11.1861C7.68795 11.1882 7.69196 11.1903 7.69612 11.1924C7.73537 11.2116 7.77527 11.2297 7.81548 11.2473C7.82397 11.251 7.83231 11.2547 7.84064 11.2582C7.88037 11.2752 7.92059 11.2914 7.96128 11.3066C7.96849 11.3095 7.97586 11.3121 7.98323 11.3146C8.02328 11.3294 8.06382 11.3435 8.10468 11.3566C8.10788 11.3576 8.11108 11.3587 8.11429 11.3598C8.15691 11.3733 8.2 11.3854 8.24342 11.3971C8.25192 11.3994 8.26057 11.4018 8.26922 11.404C8.31184 11.4149 8.35461 11.425 8.39787 11.4342C8.40588 11.4359 8.41373 11.4374 8.42175 11.439C8.46564 11.4479 8.50954 11.4561 8.55408 11.4632C8.55585 11.4633 8.55777 11.4638 8.55953 11.464C8.60503 11.4712 8.65086 11.4768 8.69684 11.4819C8.70565 11.4827 8.7143 11.4838 8.72295 11.4846C8.76781 11.4891 8.81284 11.4926 8.85818 11.4952C8.86683 11.4957 8.87532 11.496 8.88397 11.4963C8.93124 11.4986 8.97882 11.5 9.02657 11.5C9.07447 11.5 9.12189 11.4986 9.16932 11.4963C9.17781 11.496 9.18646 11.4957 9.19495 11.4952C9.2403 11.4926 9.28532 11.4891 9.33018 11.4846C9.33899 11.4838 9.34764 11.4829 9.35629 11.4819C9.40244 11.4768 9.44826 11.4712 9.49376 11.464C9.49552 11.4638 9.49728 11.4633 9.49921 11.4632C9.54359 11.4561 9.58765 11.4479 9.63139 11.439C9.6394 11.4374 9.64741 11.4359 9.65526 11.4342C9.69852 11.425 9.74146 11.4149 9.78391 11.404C9.79256 11.4018 9.80122 11.3994 9.80987 11.3971C9.85329 11.3854 9.89639 11.3733 9.939 11.3598C9.94221 11.3587 9.94525 11.3576 9.94846 11.3566C9.98947 11.3435 10.0298 11.3294 10.0701 11.3146C10.0773 11.3119 10.0846 11.3095 10.092 11.3066C10.1325 11.2914 10.1728 11.2752 10.2125 11.2582C10.221 11.2547 10.2293 11.251 10.2376 11.2473C10.2779 11.2297 10.3178 11.2116 10.3572 11.1924C10.3612 11.1903 10.3653 11.1882 10.3693 11.1861C10.4067 11.1677 10.4435 11.1485 10.4801 11.1285C10.4866 11.1249 10.4932 11.1214 10.4996 11.1179C10.5371 11.0971 10.5741 11.0753 10.6108 11.0528C10.6188 11.048 10.6265 11.0431 10.6345 11.0381C10.6712 11.0152 10.7076 10.9916 10.7433 10.9673C10.7478 10.9641 10.7523 10.9609 10.7568 10.9578C10.7904 10.9344 10.8236 10.9102 10.8564 10.8856C10.8619 10.8814 10.8675 10.8774 10.8729 10.8732C10.907 10.8471 10.9405 10.8204 10.9737 10.7928C10.9807 10.7869 10.9878 10.7809 10.9948 10.775C11.0277 10.7471 11.0602 10.7188 11.0919 10.6895C11.0964 10.6853 11.1007 10.6811 11.1052 10.677C11.1353 10.6489 11.1648 10.6204 11.1938 10.5911C11.1982 10.5868 11.2025 10.5826 11.2068 10.5783C11.2371 10.5473 11.2666 10.5158 11.2956 10.4836C11.3017 10.4769 11.3077 10.4701 11.3137 10.4632C11.3423 10.431 11.3705 10.3982 11.3979 10.3647C11.4019 10.3596 11.4061 10.3543 11.4101 10.3492C11.4362 10.3166 11.4619 10.2838 11.4867 10.2501C11.4897 10.2461 11.493 10.2421 11.4958 10.2381C11.4973 10.2362 11.4989 10.2343 11.5003 10.2324C11.5016 10.2343 11.5032 10.236 11.5046 10.2381C11.5075 10.2421 11.5107 10.2461 11.5138 10.2501C11.5386 10.2838 11.5641 10.3168 11.5904 10.3492C11.5944 10.3543 11.5985 10.3596 11.6025 10.3647C11.6299 10.3982 11.6581 10.431 11.6868 10.4632C11.6927 10.4701 11.6988 10.4769 11.7049 10.4836C11.7339 10.5158 11.7634 10.5473 11.7937 10.5783C11.798 10.5826 11.8023 10.5868 11.8067 10.5911C11.8357 10.6204 11.8651 10.6489 11.8953 10.677C11.8997 10.6811 11.9041 10.6853 11.9086 10.6895C11.9403 10.7188 11.9728 10.7471 12.0056 10.775L12.0268 10.7928C12.0598 10.8204 12.0934 10.8471 12.1276 10.8732C12.133 10.8774 12.1386 10.8814 12.1441 10.8856C12.1769 10.9102 12.2101 10.9344 12.2437 10.9578C12.2484 10.9609 12.2527 10.9641 12.2572 10.9673C12.2929 10.9916 12.3293 11.0152 12.366 11.0381C12.374 11.0431 12.3818 11.048 12.3897 11.0528C12.4262 11.0753 12.4632 11.0971 12.5009 11.1179C12.5073 11.1214 12.5139 11.1249 12.5204 11.1285C12.557 11.1485 12.5938 11.1677 12.6311 11.1861C12.6351 11.1882 12.6393 11.1903 12.6433 11.1924C12.6827 11.2116 12.7226 11.2297 12.7628 11.2473C12.7712 11.251 12.7795 11.2547 12.788 11.2582C12.8277 11.2752 12.8679 11.2914 12.9085 11.3066C12.9158 11.3095 12.9232 11.3121 12.9304 11.3146C12.9706 11.3294 13.011 11.3435 13.052 11.3566C13.0552 11.3576 13.0584 11.3587 13.0615 11.3598C13.1041 11.3733 13.1472 11.3854 13.1906 11.3971C13.1993 11.3994 13.2078 11.4018 13.2166 11.404C13.259 11.4149 13.302 11.425 13.3452 11.4342C13.3531 11.4359 13.3611 11.4374 13.3691 11.439C13.4128 11.4479 13.4569 11.4561 13.5013 11.4632C13.5032 11.4633 13.505 11.4638 13.5067 11.464C13.5522 11.4712 13.598 11.4768 13.6442 11.4819C13.6528 11.4827 13.6615 11.4838 13.6703 11.4846C13.7152 11.4891 13.7602 11.4926 13.8055 11.4952C13.814 11.4957 13.8227 11.496 13.8312 11.4963C13.8786 11.4986 13.926 11.5 13.9739 11.5C14.0217 11.5 14.0692 11.4986 14.1165 11.4963C14.1252 11.496 14.1337 11.4957 14.1423 11.4952C14.1876 11.4926 14.2327 11.4891 14.2775 11.4846C14.2862 11.4838 14.2948 11.4829 14.3036 11.4819C14.3496 11.4768 14.3956 11.4712 14.4409 11.464C14.4427 11.4638 14.4446 11.4633 14.4464 11.4632C14.4908 11.4561 14.5348 11.4479 14.5787 11.439C14.5867 11.4374 14.5946 11.4359 14.6026 11.4342C14.6459 11.425 14.6888 11.4149 14.7313 11.404C14.7399 11.4018 14.7486 11.3994 14.7572 11.3971C14.8005 11.3854 14.8436 11.3733 14.8862 11.3598C14.8894 11.3587 14.8926 11.3576 14.8958 11.3566C14.9367 11.3435 14.9772 11.3294 15.0173 11.3146C15.0246 11.3119 15.032 11.3095 15.0392 11.3066C15.0799 11.2914 15.1201 11.2752 15.1598 11.2582C15.1682 11.2547 15.1765 11.251 15.185 11.2473C15.2252 11.2297 15.2651 11.2116 15.3044 11.1924C15.3085 11.1903 15.3125 11.1882 15.3167 11.1861C15.354 11.1677 15.3909 11.1485 15.4274 11.1285C15.4338 11.1249 15.4404 11.1214 15.4468 11.1179C15.4844 11.0971 15.5215 11.0753 15.5581 11.0528C15.566 11.048 15.5738 11.0431 15.5817 11.0381C15.6184 11.0152 15.6548 10.9916 15.6905 10.9673C15.695 10.9641 15.6995 10.9609 15.7039 10.9578C15.7377 10.9344 15.7709 10.9102 15.8036 10.8856C15.8092 10.8814 15.8148 10.8774 15.8203 10.8732C15.8544 10.8471 15.8879 10.8204 15.9209 10.7928C15.9281 10.7869 15.935 10.7809 15.9422 10.775C15.975 10.7471 16.0074 10.7188 16.0391 10.6895C16.0438 10.6853 16.0481 10.6811 16.0526 10.677C16.0825 10.6489 16.1122 10.6204 16.141 10.5911C16.1453 10.5868 16.1498 10.5826 16.154 10.5783C16.1843 10.5473 16.2139 10.5158 16.2429 10.4836C16.249 10.4769 16.2549 10.4701 16.261 10.4632C16.2897 10.431 16.3177 10.3982 16.3451 10.3647C16.3493 10.3596 16.3533 10.3543 16.3575 10.3492C16.3836 10.3166 16.4092 10.2838 16.4341 10.2501C16.4371 10.2461 16.4401 10.2421 16.4432 10.2381C16.4446 10.2362 16.4461 10.2343 16.4475 10.2324C16.449 10.2343 16.4504 10.236 16.4518 10.2381C16.4549 10.2421 16.4579 10.2461 16.461 10.2501C16.486 10.2838 16.5114 10.3168 16.5376 10.3492C16.5417 10.3543 16.5457 10.3596 16.5499 10.3647C16.5773 10.3982 16.6053 10.431 16.634 10.4632C16.6401 10.4701 16.646 10.4769 16.6523 10.4836C16.6811 10.5158 16.7107 10.5473 16.741 10.5783C16.7454 10.5826 16.7497 10.5868 16.754 10.5911C16.7828 10.6204 16.8123 10.6489 16.8424 10.677C16.8469 10.6811 16.8514 10.6853 16.8559 10.6895C16.8876 10.7188 16.92 10.7471 16.953 10.775C16.9599 10.7809 16.9671 10.7869 16.9741 10.7928C17.0071 10.8204 17.0406 10.8471 17.0748 10.8732C17.0802 10.8774 17.0858 10.8814 17.0914 10.8856C17.1241 10.9102 17.1574 10.9344 17.1911 10.9578C17.1956 10.9609 17.2001 10.9641 17.2045 10.9673C17.2403 10.9916 17.2766 11.0152 17.3133 11.0381C17.3212 11.0431 17.329 11.048 17.3369 11.0528C17.3736 11.0753 17.4106 11.0971 17.4482 11.1179C17.4546 11.1214 17.4612 11.1249 17.4676 11.1285C17.5041 11.1485 17.541 11.1677 17.5785 11.1861C17.5825 11.1882 17.5865 11.1903 17.5907 11.1924C17.6299 11.2116 17.6698 11.2297 17.7102 11.2473C17.7185 11.251 17.7268 11.2547 17.7352 11.2582C17.7751 11.2752 17.8151 11.2914 17.8558 11.3066C17.863 11.3095 17.8704 11.3121 17.8778 11.3146C17.9178 11.3294 17.9584 11.3435 17.9992 11.3566C18.0024 11.3576 18.0056 11.3587 18.0088 11.3598C18.0514 11.3733 18.0945 11.3854 18.138 11.3971C18.1466 11.3994 18.1551 11.4018 18.1638 11.404C18.2064 11.4149 18.2493 11.425 18.2924 11.4342C18.3004 11.4359 18.3084 11.4374 18.3163 11.439C18.3602 11.4479 18.4041 11.4561 18.4486 11.4632C18.4504 11.4633 18.4523 11.4638 18.4541 11.464C18.4996 11.4712 18.5454 11.4768 18.5915 11.4819C18.6002 11.4827 18.6088 11.4838 18.6175 11.4846C18.6624 11.4891 18.7074 11.4926 18.7527 11.4952C18.7614 11.4957 18.7699 11.496 18.7785 11.4963C18.8258 11.4986 18.8734 11.5 18.9211 11.5C18.9379 11.5 18.9548 11.4998 18.9716 11.4995V18.1634H10.8942V14.3269C10.8942 13.3249 10.079 12.5097 9.07687 12.5097H7.46156C6.4594 12.5097 5.64422 13.3249 5.64422 14.3269V18.1634H4.02891V11.4995C4.04573 11.4998 4.06255 11.5 4.07938 11.5C4.12712 11.5 4.17471 11.4986 4.22197 11.4963V11.4963ZM9.68266 18.1634H6.85578V14.3269C6.85578 13.993 7.12751 13.7211 7.46156 13.7211H9.07687C9.41093 13.7211 9.68266 13.993 9.68266 14.3269V18.1634ZM20.0817 20.7884H2.91828C2.52863 20.7884 2.21156 20.4714 2.21156 20.0817C2.21156 19.6921 2.52863 19.375 2.91828 19.375H20.0817C20.4714 19.375 20.7884 19.6921 20.7884 20.0817C20.7884 20.4714 20.4714 20.7884 20.0817 20.7884Z" fill="#90604C"/>
<path d="M20.1827 18.1662V11.2239C21.2529 10.733 22 9.63908 22 8.37016C22 8.34837 21.9992 8.3269 21.9987 8.30527C22.0064 8.17693 21.9731 8.04748 21.9007 7.93693C21.9003 7.93645 21.9 7.93597 21.8997 7.93549L20.4922 5.76999C20.4893 5.7655 20.4864 5.76086 20.4835 5.75637L19.375 4.05118V2.81734C19.375 1.81519 18.5598 1 17.5577 1H5.44234C4.44019 1 3.625 1.81519 3.625 2.81734V4.05118L1.1003 7.93549C1.09998 7.93613 1.09966 7.93677 1.09933 7.93725C1.02868 8.04507 0.995995 8.17036 1.00144 8.29469C1.0008 8.31985 1 8.34484 1 8.37016C1 9.63908 1.74709 10.733 2.81734 11.2239V18.1662C1.80637 18.2189 1 19.0579 1 20.0817C1 21.1395 1.86053 22 2.91828 22H20.0817C21.1395 22 22 21.1395 22 20.0817C22 19.0579 21.1936 18.2189 20.1827 18.1662V18.1662ZM19.4106 10.2211C19.3715 10.232 19.3322 10.2417 19.2928 10.2498C19.292 10.25 19.291 10.2501 19.2902 10.2505C19.2122 10.2666 19.1334 10.2774 19.0542 10.2831C19.0475 10.2836 19.0405 10.2841 19.0337 10.2846C18.9961 10.2868 18.9584 10.2884 18.9206 10.2884C18.8908 10.2884 18.8612 10.2875 18.8317 10.2862C18.8223 10.2857 18.813 10.2849 18.8035 10.2843C18.7833 10.283 18.7633 10.2815 18.7433 10.2795C18.7325 10.2785 18.7218 10.2772 18.7111 10.2761C18.6923 10.2739 18.6736 10.2715 18.655 10.2687C18.6442 10.2671 18.6337 10.2655 18.6231 10.2638C18.6037 10.2606 18.5843 10.257 18.5651 10.2532C18.556 10.2514 18.5467 10.2497 18.5377 10.2477C18.5106 10.242 18.484 10.2357 18.4574 10.2287C18.4563 10.2284 18.4552 10.2282 18.4541 10.2279C18.4264 10.2205 18.399 10.2125 18.3719 10.2038C18.3634 10.2011 18.3552 10.1982 18.3469 10.1954C18.328 10.1893 18.3094 10.1829 18.2908 10.176C18.2812 10.1723 18.2716 10.1686 18.262 10.1649C18.2448 10.1582 18.2277 10.1513 18.2107 10.1441C18.2011 10.1401 18.1916 10.1361 18.1822 10.1317C18.1644 10.1241 18.1469 10.1157 18.1296 10.1074C18.1215 10.1034 18.1133 10.0997 18.1053 10.0957C18.0819 10.0838 18.0587 10.0718 18.0359 10.0592C18.0341 10.0582 18.0324 10.0572 18.0306 10.0563C18.0059 10.0425 17.9818 10.0281 17.9579 10.0133C17.9508 10.0089 17.9438 10.0042 17.9367 9.99973C17.9201 9.98899 17.9034 9.97826 17.8871 9.96688C17.8787 9.96127 17.8706 9.95551 17.8624 9.94958C17.8473 9.939 17.8324 9.92811 17.8175 9.91689C17.8095 9.9108 17.8013 9.90472 17.7933 9.89847C17.7783 9.88661 17.7632 9.87444 17.7485 9.86226C17.7416 9.85649 17.7345 9.85072 17.7276 9.84496C17.7084 9.82845 17.6895 9.81163 17.6709 9.79449C17.669 9.79256 17.6668 9.7908 17.6648 9.78888C17.6442 9.76965 17.6241 9.74979 17.6044 9.72976C17.5988 9.72399 17.5934 9.71806 17.5878 9.7123C17.5738 9.69756 17.5601 9.68282 17.5466 9.66776C17.5399 9.66039 17.5333 9.65269 17.5267 9.64516C17.5147 9.63123 17.5027 9.61697 17.4908 9.60271C17.4843 9.5947 17.4779 9.58685 17.4715 9.57867C17.4596 9.56377 17.4479 9.54839 17.4365 9.53301C17.4309 9.52564 17.4253 9.51827 17.4199 9.51074C17.4056 9.49088 17.3917 9.47069 17.3781 9.45034C17.376 9.44714 17.3737 9.44409 17.3715 9.44089C17.3559 9.41718 17.3409 9.39298 17.3263 9.36847C17.3221 9.36158 17.3183 9.35453 17.3143 9.34748C17.304 9.32986 17.2939 9.31207 17.2843 9.29397C17.2794 9.285 17.2747 9.2757 17.2701 9.26657C17.2614 9.25007 17.2531 9.23357 17.2451 9.21674C17.2404 9.20713 17.2359 9.19736 17.2315 9.18774C17.2234 9.17044 17.2158 9.15298 17.2082 9.13535C17.2044 9.12622 17.2004 9.11725 17.1967 9.10812C17.1879 9.08617 17.1794 9.06406 17.1712 9.04195C17.1694 9.03698 17.1675 9.03217 17.1658 9.02721C17.1562 9.00013 17.147 8.97257 17.1385 8.94501C17.1361 8.93684 17.1339 8.92867 17.1315 8.9205C17.1272 8.90544 17.123 8.89022 17.119 8.87516H20.7229C20.5492 9.52821 20.0468 10.0433 19.4106 10.2211V10.2211ZM15.7557 8.94485C15.7472 8.97257 15.7381 8.99997 15.7285 9.02721C15.7267 9.03217 15.7248 9.03682 15.723 9.04179C15.7148 9.06406 15.7063 9.08617 15.6975 9.10796C15.6938 9.11725 15.6898 9.12622 15.686 9.13535C15.6785 9.15282 15.6708 9.17028 15.6629 9.18758C15.6584 9.19736 15.6538 9.20697 15.6491 9.21658C15.6411 9.23341 15.6328 9.25007 15.6243 9.26657C15.6195 9.2757 15.6149 9.28484 15.6099 9.29397C15.6003 9.31207 15.5902 9.3297 15.5799 9.34748C15.5759 9.35437 15.5721 9.36158 15.5679 9.36847C15.5533 9.39282 15.5383 9.41702 15.5227 9.44073C15.5205 9.44393 15.5182 9.44714 15.5162 9.45034C15.5025 9.47069 15.4886 9.49088 15.4743 9.51058C15.4689 9.51811 15.4633 9.52548 15.4577 9.53301C15.4463 9.54839 15.4346 9.56361 15.4228 9.57867C15.4164 9.58669 15.4099 9.5947 15.4034 9.60255C15.3915 9.61697 15.3797 9.63107 15.3675 9.64516C15.3609 9.65269 15.3543 9.66022 15.3476 9.66776C15.3342 9.68282 15.3204 9.69756 15.3064 9.71214C15.3008 9.71806 15.2954 9.72399 15.2898 9.7296C15.2701 9.74979 15.25 9.76965 15.2294 9.78888C15.2275 9.79064 15.2252 9.79256 15.2233 9.79433C15.2047 9.81163 15.1858 9.82829 15.1666 9.8448C15.1597 9.85072 15.1526 9.85633 15.1457 9.8621C15.131 9.87444 15.1159 9.88645 15.1009 9.89831C15.0929 9.90456 15.0847 9.9108 15.0767 9.91689C15.062 9.92795 15.0471 9.93884 15.032 9.94958C15.0237 9.95535 15.0155 9.96111 15.0072 9.96688C14.9908 9.9781 14.9742 9.98899 14.9575 9.99973C14.9504 10.0042 14.9436 10.0089 14.9363 10.0132C14.9125 10.0281 14.8883 10.0425 14.8636 10.0563C14.8618 10.0572 14.8601 10.058 14.8583 10.059C14.8356 10.0717 14.8123 10.0838 14.7889 10.0955C14.7809 10.0995 14.7728 10.1034 14.7646 10.1072C14.7473 10.1157 14.7298 10.1239 14.712 10.1317C14.7026 10.1359 14.6931 10.1399 14.6835 10.1441C14.6665 10.1511 14.6496 10.158 14.6322 10.1647C14.6226 10.1686 14.613 10.1723 14.6034 10.1758C14.5848 10.1827 14.5662 10.1891 14.5475 10.1954C14.539 10.1981 14.5308 10.2011 14.5223 10.2037C14.4953 10.2123 14.4679 10.2203 14.4401 10.2277C14.439 10.228 14.4379 10.2284 14.4368 10.2287C14.4102 10.2356 14.3834 10.2418 14.3567 10.2477C14.3475 10.2497 14.3382 10.2513 14.3291 10.253C14.3099 10.2569 14.2905 10.2606 14.2711 10.2638C14.2605 10.2655 14.25 10.2671 14.2392 10.2686C14.2206 10.2713 14.2019 10.2737 14.1832 10.2759C14.1724 10.2772 14.1619 10.2783 14.151 10.2795C14.1311 10.2814 14.1109 10.2828 14.0907 10.2841C14.0813 10.2848 14.072 10.2856 14.0625 10.286C14.033 10.2875 14.0034 10.2883 13.9736 10.2883C13.9436 10.2883 13.914 10.2875 13.8845 10.286C13.8751 10.2856 13.8658 10.2848 13.8565 10.2841C13.8363 10.2828 13.8161 10.2814 13.7961 10.2795C13.7853 10.2783 13.7746 10.2772 13.764 10.2759C13.7451 10.2737 13.7264 10.2713 13.7078 10.2686C13.6972 10.267 13.6866 10.2655 13.6761 10.2638C13.6565 10.2606 13.6373 10.2569 13.6179 10.253C13.6088 10.2513 13.5996 10.2497 13.5905 10.2477C13.5636 10.242 13.5368 10.2356 13.5104 10.2287C13.5093 10.2284 13.5082 10.228 13.5069 10.2277C13.4793 10.2203 13.4519 10.2123 13.4247 10.2037C13.4164 10.2011 13.408 10.1981 13.3997 10.1954C13.381 10.1891 13.3622 10.1827 13.3438 10.1758C13.334 10.1723 13.3244 10.1686 13.3148 10.1647C13.2976 10.158 13.2805 10.1511 13.2635 10.1441C13.2541 10.1399 13.2444 10.1359 13.235 10.1317C13.2174 10.1239 13.1999 10.1157 13.1824 10.1072C13.1743 10.1034 13.1661 10.0995 13.1581 10.0955C13.1347 10.0838 13.1116 10.0717 13.0887 10.059C13.0871 10.058 13.0852 10.0572 13.0834 10.0563C13.0589 10.0425 13.0347 10.0281 13.0107 10.0132C13.0036 10.0089 12.9967 10.0042 12.9897 9.99973C12.9729 9.98899 12.9564 9.9781 12.9399 9.96688C12.9315 9.96111 12.9234 9.95535 12.9152 9.94958C12.9001 9.93884 12.8852 9.92795 12.8705 9.91689C12.8623 9.9108 12.8543 9.90456 12.8463 9.89831C12.8311 9.88645 12.8162 9.87444 12.8014 9.8621C12.7944 9.85633 12.7873 9.85072 12.7806 9.8448C12.7614 9.82845 12.7425 9.81163 12.7239 9.79433C12.7218 9.79256 12.7197 9.79064 12.7177 9.78888C12.6971 9.76949 12.677 9.74979 12.6572 9.7296C12.6516 9.72383 12.6462 9.7179 12.6407 9.71214C12.6268 9.69756 12.6129 9.68282 12.5994 9.66776C12.5928 9.66022 12.5863 9.65269 12.5797 9.64516C12.5675 9.63107 12.5555 9.61697 12.5438 9.60255C12.5372 9.5947 12.5308 9.58669 12.5244 9.57867C12.5124 9.56361 12.5009 9.54839 12.4893 9.53301C12.4839 9.52548 12.4783 9.51811 12.4728 9.51058C12.4584 9.49088 12.4445 9.47069 12.431 9.45034C12.4288 9.44714 12.4265 9.44393 12.4245 9.44073C12.4089 9.41702 12.3939 9.39282 12.3793 9.36847C12.3751 9.36158 12.3713 9.35437 12.3673 9.34748C12.3568 9.3297 12.3469 9.31191 12.3371 9.29397C12.3323 9.28484 12.3275 9.2757 12.3229 9.26657C12.3144 9.25007 12.3061 9.23341 12.2979 9.21658C12.2932 9.20697 12.2887 9.19736 12.2843 9.18758C12.2763 9.17044 12.2686 9.15282 12.2612 9.13535C12.2573 9.12622 12.2533 9.11725 12.2497 9.10796C12.2407 9.08617 12.2322 9.06406 12.2242 9.04179C12.2224 9.03698 12.2203 9.03217 12.2186 9.02721C12.209 8.99997 12.2 8.97257 12.1915 8.94485C12.1889 8.93668 12.1869 8.92851 12.1844 8.92034C12.18 8.90544 12.176 8.89022 12.172 8.875H15.7752C15.7712 8.89022 15.7671 8.90528 15.7627 8.92034C15.7603 8.92851 15.7581 8.93668 15.7557 8.94485ZM10.8085 8.94485C10.8 8.97257 10.791 8.99997 10.7814 9.02721C10.7797 9.03217 10.7776 9.03682 10.7758 9.04179C10.7678 9.06406 10.7593 9.08617 10.7503 9.10796C10.7467 9.11725 10.7427 9.12622 10.7388 9.13535C10.7314 9.15282 10.7237 9.17028 10.7157 9.18758C10.7113 9.19736 10.7068 9.20697 10.7021 9.21658C10.6939 9.23341 10.6856 9.25007 10.6771 9.26657C10.6725 9.2757 10.6677 9.28484 10.6629 9.29397C10.6531 9.31207 10.6432 9.3297 10.6327 9.34748C10.6287 9.35437 10.6249 9.36158 10.6207 9.36847C10.6061 9.39282 10.5912 9.41702 10.5755 9.44073C10.5735 9.44393 10.5712 9.44714 10.569 9.45034C10.5555 9.47069 10.5416 9.49088 10.5272 9.51058C10.5219 9.51811 10.5161 9.52548 10.5107 9.53301C10.4991 9.54839 10.4876 9.56361 10.4756 9.57867C10.4692 9.58669 10.4628 9.5947 10.4562 9.60255C10.4445 9.61697 10.4325 9.63107 10.4203 9.64516C10.4137 9.65269 10.4072 9.66022 10.4006 9.66776C10.3871 9.68282 10.3732 9.69756 10.3593 9.71214C10.3538 9.71806 10.3484 9.72399 10.3428 9.7296C10.323 9.74979 10.3029 9.76965 10.2823 9.78888C10.2803 9.79064 10.2782 9.79256 10.2761 9.79433C10.2575 9.81163 10.2386 9.82829 10.2194 9.8448C10.2127 9.85072 10.2056 9.85633 10.1986 9.8621C10.1838 9.87444 10.1689 9.88645 10.1537 9.89831C10.1457 9.90456 10.1377 9.9108 10.1295 9.91689C10.1148 9.92795 10.0999 9.93884 10.0848 9.94958C10.0766 9.95535 10.0685 9.96111 10.0601 9.96688C10.0436 9.9781 10.0271 9.98899 10.0103 9.99973C10.0033 10.0042 9.99636 10.0089 9.98931 10.0132C9.96528 10.0281 9.94109 10.0425 9.91657 10.0563C9.91481 10.0572 9.91289 10.058 9.91129 10.059C9.88837 10.0717 9.8653 10.0838 9.84191 10.0955C9.8339 10.0995 9.82573 10.1034 9.81756 10.1072C9.80009 10.1157 9.78263 10.1239 9.76501 10.1317C9.75555 10.1359 9.74594 10.1399 9.73649 10.1441C9.71951 10.1511 9.70236 10.158 9.68522 10.1647C9.67561 10.1686 9.66599 10.1723 9.65622 10.1758C9.63779 10.1827 9.61905 10.1891 9.6003 10.1954C9.59197 10.1981 9.58364 10.2011 9.57531 10.2037C9.54807 10.2123 9.52068 10.2203 9.49312 10.2277C9.49184 10.228 9.49072 10.2284 9.48959 10.2287C9.46316 10.2356 9.4364 10.2418 9.40948 10.2477C9.40035 10.2497 9.39122 10.2513 9.38209 10.253C9.3627 10.2569 9.34348 10.2606 9.32393 10.2638C9.31335 10.2655 9.30278 10.2671 9.29221 10.2686C9.27362 10.2713 9.25488 10.2737 9.23597 10.2759C9.2254 10.2772 9.21466 10.2783 9.20393 10.2795C9.1839 10.2814 9.16371 10.2828 9.14352 10.2841C9.13423 10.2848 9.12494 10.2856 9.11549 10.286C9.08601 10.2875 9.05637 10.2883 9.02641 10.2883C8.9966 10.2883 8.96696 10.2875 8.93748 10.286C8.92803 10.2856 8.91874 10.2848 8.90929 10.2841C8.8891 10.2828 8.86907 10.2814 8.84904 10.2795C8.83831 10.2783 8.82758 10.2772 8.81684 10.2759C8.7981 10.2737 8.77935 10.2713 8.76077 10.2686C8.75003 10.267 8.73946 10.2655 8.72888 10.2638C8.7095 10.2606 8.69011 10.2569 8.67088 10.253C8.66175 10.2513 8.65246 10.2497 8.64333 10.2477C8.61641 10.242 8.58965 10.2356 8.56322 10.2287C8.5621 10.2284 8.56097 10.228 8.55985 10.2277C8.53214 10.2203 8.50474 10.2123 8.47766 10.2037C8.46917 10.2011 8.461 10.1981 8.45251 10.1954C8.43376 10.1891 8.41518 10.1827 8.39659 10.1758C8.38698 10.1723 8.37737 10.1686 8.36775 10.1647C8.35045 10.158 8.33347 10.1511 8.31648 10.1441C8.30687 10.1399 8.29742 10.1359 8.28796 10.1317C8.27018 10.1239 8.25272 10.1157 8.23541 10.1072C8.22724 10.1034 8.21907 10.0995 8.21106 10.0955C8.18767 10.0838 8.16444 10.0717 8.14169 10.059C8.13992 10.058 8.13816 10.0572 8.1364 10.0563C8.11172 10.0425 8.08753 10.0281 8.06366 10.0132C8.05645 10.0089 8.04956 10.0042 8.04251 9.99973C8.02585 9.98899 8.00919 9.9781 7.99284 9.96688C7.98451 9.96111 7.97634 9.95535 7.96801 9.94958C7.95295 9.93884 7.93805 9.92795 7.92331 9.91689C7.9153 9.9108 7.90713 9.90456 7.89912 9.89831C7.88406 9.88645 7.869 9.87444 7.85426 9.8621C7.84737 9.85633 7.84032 9.85072 7.83343 9.8448C7.8142 9.82845 7.7953 9.81163 7.77671 9.79433C7.77479 9.79256 7.77254 9.79064 7.77062 9.78888C7.74995 9.76949 7.72993 9.74979 7.71022 9.7296C7.70461 9.72383 7.69917 9.7179 7.69356 9.71214C7.67962 9.69756 7.66584 9.68282 7.65238 9.66776C7.64565 9.66022 7.63908 9.65269 7.63251 9.64516C7.62034 9.63107 7.60848 9.61697 7.59663 9.60255C7.59006 9.5947 7.58365 9.58669 7.57724 9.57867C7.56538 9.56361 7.55369 9.54839 7.54231 9.53301C7.53671 9.52548 7.5311 9.51811 7.52565 9.51058C7.51139 9.49088 7.49745 9.47069 7.48383 9.45034C7.48175 9.44714 7.47951 9.44393 7.47726 9.44073C7.46172 9.41702 7.44666 9.39282 7.43208 9.36847C7.42792 9.36158 7.42407 9.35437 7.42007 9.34748C7.40981 9.3297 7.39972 9.31191 7.39011 9.29397C7.38514 9.28484 7.38049 9.2757 7.37569 9.26657C7.3672 9.25007 7.35886 9.23341 7.35085 9.21658C7.34621 9.20697 7.34156 9.19736 7.33707 9.18758C7.32922 9.17044 7.32153 9.15282 7.314 9.13535C7.31016 9.12622 7.30615 9.11725 7.30247 9.10796C7.29366 9.08617 7.28516 9.06406 7.27699 9.04179C7.27523 9.03698 7.27331 9.03217 7.27155 9.02721C7.26193 8.99997 7.2528 8.97257 7.24431 8.94485C7.24191 8.93668 7.23966 8.92851 7.23726 8.92034C7.23293 8.90544 7.22877 8.89022 7.22476 8.875H10.828C10.824 8.89022 10.8199 8.90528 10.8156 8.92034C10.8131 8.92851 10.8111 8.93668 10.8085 8.94485ZM4.73867 4.56099C4.8026 4.46262 4.83656 4.3479 4.83656 4.23078V2.81734C4.83656 2.48329 5.10829 2.21156 5.44234 2.21156H17.5577C17.8917 2.21156 18.1634 2.48329 18.1634 2.81734V4.23078C18.1634 4.3479 18.1974 4.46262 18.2613 4.56099L20.2778 7.66344H2.72202L4.73867 4.56099ZM2.27709 8.875H5.88102C5.87701 8.89022 5.87285 8.90528 5.86852 8.92034C5.86612 8.92851 5.86388 8.93668 5.86147 8.94485C5.85298 8.97257 5.84385 8.99997 5.83424 9.02721C5.83247 9.03217 5.83055 9.03682 5.82879 9.04179C5.82062 9.06406 5.81213 9.08617 5.80331 9.10796C5.79963 9.11725 5.79562 9.12622 5.79178 9.13535C5.78425 9.15282 5.77656 9.17028 5.76855 9.18758C5.76406 9.19736 5.75957 9.20697 5.75493 9.21658C5.74692 9.23341 5.73859 9.25007 5.72993 9.26657C5.72529 9.2757 5.72048 9.28484 5.71568 9.29397C5.70606 9.31207 5.69597 9.3297 5.68571 9.34748C5.68171 9.35437 5.67786 9.36158 5.6737 9.36847C5.65912 9.39282 5.64406 9.41702 5.62852 9.44073C5.62627 9.44393 5.62403 9.44714 5.62195 9.45034C5.60833 9.47069 5.59439 9.49088 5.58013 9.51058C5.57468 9.51811 5.56908 9.52548 5.56347 9.53301C5.55209 9.54839 5.5404 9.56361 5.52854 9.57867C5.52213 9.58669 5.51572 9.5947 5.50916 9.60255C5.4973 9.61697 5.48544 9.63107 5.47327 9.64516C5.4667 9.65269 5.46013 9.66022 5.4534 9.66776C5.43994 9.68282 5.42616 9.69756 5.41222 9.71214C5.40662 9.71806 5.40117 9.72399 5.39556 9.7296C5.37585 9.74979 5.35583 9.76965 5.33516 9.78888C5.33308 9.79064 5.33099 9.79256 5.32907 9.79433C5.31049 9.81163 5.29158 9.82829 5.27235 9.8448C5.26546 9.85072 5.25842 9.85633 5.25153 9.8621C5.23679 9.87444 5.22173 9.88645 5.20667 9.89831C5.19865 9.90456 5.19048 9.9108 5.18247 9.91689C5.16757 9.92795 5.15267 9.93884 5.13761 9.94958C5.12944 9.95535 5.12127 9.96111 5.11294 9.96688C5.0966 9.9781 5.07993 9.98899 5.06327 9.99973C5.05622 10.0042 5.04933 10.0089 5.04212 10.0132C5.01825 10.0281 4.99406 10.0425 4.96938 10.0563C4.96762 10.0572 4.96586 10.058 4.9641 10.059C4.94135 10.0717 4.91811 10.0838 4.89472 10.0955C4.88671 10.0995 4.87854 10.1034 4.87037 10.1072C4.85307 10.1157 4.8356 10.1239 4.81782 10.1317C4.80836 10.1359 4.79891 10.1399 4.7893 10.1441C4.77232 10.1511 4.75533 10.158 4.73803 10.1647C4.72842 10.1686 4.7188 10.1723 4.70919 10.1758C4.69061 10.1827 4.67186 10.1891 4.65311 10.1954C4.64478 10.1981 4.63661 10.2011 4.62812 10.2037C4.60104 10.2123 4.57365 10.2203 4.54593 10.2277C4.54481 10.228 4.54369 10.2284 4.54256 10.2287C4.51597 10.2356 4.48921 10.2418 4.4623 10.2477C4.45332 10.2497 4.44403 10.2513 4.4349 10.253C4.41567 10.2569 4.39629 10.2606 4.3769 10.2638C4.36633 10.2655 4.35575 10.2671 4.34502 10.2686C4.32643 10.2713 4.30769 10.2737 4.28894 10.2759C4.27821 10.2772 4.26763 10.2783 4.25674 10.2795C4.23671 10.2814 4.21668 10.2828 4.1965 10.2841C4.18704 10.2848 4.17775 10.2856 4.1683 10.286C4.13882 10.2876 4.10918 10.2884 4.07938 10.2884C4.04173 10.2884 4.00391 10.287 3.96626 10.2846C3.95937 10.2841 3.95248 10.2838 3.94576 10.2833C3.86661 10.2774 3.78778 10.2666 3.70975 10.2505C3.70895 10.2503 3.70799 10.2501 3.70719 10.25C3.66778 10.2417 3.62852 10.232 3.58943 10.2211C2.95321 10.0433 2.45077 9.52821 2.27709 8.875V8.875ZM4.22197 11.4963C4.23062 11.496 4.23911 11.4957 4.24776 11.4952C4.29311 11.4926 4.33813 11.4891 4.38299 11.4846C4.39164 11.4838 4.40029 11.4829 4.4091 11.4819C4.45509 11.4768 4.50091 11.4712 4.54641 11.464C4.54817 11.4638 4.55009 11.4633 4.55186 11.4632C4.59624 11.4561 4.6403 11.4479 4.6842 11.439C4.69205 11.4374 4.70006 11.4359 4.70807 11.4342C4.75133 11.425 4.79411 11.4149 4.83672 11.404C4.84538 11.4018 4.85387 11.3994 4.86252 11.3971C4.90594 11.3854 4.94904 11.3733 4.99165 11.3598C4.99486 11.3587 4.99806 11.3576 5.00127 11.3566C5.04212 11.3435 5.08266 11.3294 5.12271 11.3146C5.13008 11.3119 5.13745 11.3095 5.14466 11.3066C5.18536 11.2914 5.22541 11.2752 5.2653 11.2582C5.27364 11.2547 5.28197 11.251 5.29046 11.2473C5.33067 11.2297 5.37057 11.2116 5.40982 11.1924C5.41399 11.1903 5.41799 11.1882 5.422 11.1861C5.45949 11.1677 5.49634 11.1485 5.53287 11.1285C5.53928 11.1249 5.54585 11.1214 5.55225 11.1179C5.5899 11.0971 5.62691 11.0753 5.6636 11.0528C5.67146 11.048 5.67931 11.0431 5.68716 11.0381C5.72385 11.0152 5.76022 10.9916 5.79594 10.9673C5.80043 10.9641 5.80492 10.9609 5.8094 10.9578C5.84305 10.9344 5.87637 10.9102 5.90906 10.8856C5.91467 10.8814 5.92027 10.8774 5.92572 10.8732C5.95985 10.8471 5.99333 10.8204 6.02634 10.7928C6.03339 10.7869 6.04044 10.7809 6.04749 10.775C6.08049 10.7471 6.11285 10.7188 6.14458 10.6895C6.14922 10.6853 6.15355 10.6811 6.15804 10.677C6.188 10.6489 6.21764 10.6204 6.24648 10.5911C6.2508 10.5868 6.25529 10.5826 6.25945 10.5783C6.28973 10.5473 6.31937 10.5158 6.34837 10.4836C6.35446 10.4769 6.36039 10.4701 6.36648 10.4632C6.39516 10.431 6.42319 10.3982 6.45059 10.3647C6.45476 10.3596 6.45876 10.3543 6.46293 10.3492C6.48904 10.3166 6.51468 10.2838 6.53951 10.2501C6.54256 10.2461 6.5456 10.2421 6.54865 10.2381C6.55009 10.2362 6.55153 10.2343 6.55297 10.2324C6.55441 10.2343 6.55585 10.236 6.5573 10.2381C6.56034 10.2421 6.56338 10.2461 6.56643 10.2501C6.59126 10.2838 6.6169 10.3168 6.64301 10.3492C6.64718 10.3543 6.65118 10.3596 6.65535 10.3647C6.68275 10.3982 6.71078 10.431 6.73946 10.4632C6.74555 10.4701 6.75148 10.4769 6.75757 10.4836C6.78657 10.5158 6.81621 10.5473 6.84649 10.5783C6.85065 10.5826 6.85514 10.5868 6.85947 10.5911C6.88831 10.6204 6.91779 10.6489 6.94791 10.677C6.95239 10.6811 6.95688 10.6853 6.96136 10.6895C6.99309 10.7188 7.02545 10.7471 7.05846 10.775C7.06535 10.7809 7.0724 10.7869 7.07961 10.7928C7.11261 10.8204 7.1461 10.8471 7.18022 10.8732C7.18567 10.8774 7.19128 10.8814 7.19688 10.8856C7.22957 10.9102 7.26273 10.9344 7.29654 10.9578C7.30103 10.9609 7.30551 10.9641 7.31 10.9673C7.34573 10.9916 7.3821 11.0152 7.41879 11.0381C7.42664 11.0431 7.43449 11.048 7.44234 11.0528C7.47903 11.0753 7.51604 11.0971 7.55369 11.1179C7.5601 11.1214 7.56667 11.1249 7.57307 11.1285C7.6096 11.1485 7.64645 11.1677 7.68378 11.1861C7.68795 11.1882 7.69196 11.1903 7.69612 11.1924C7.73537 11.2116 7.77527 11.2297 7.81548 11.2473C7.82397 11.251 7.83231 11.2547 7.84064 11.2582C7.88037 11.2752 7.92059 11.2914 7.96128 11.3066C7.96849 11.3095 7.97586 11.3121 7.98323 11.3146C8.02328 11.3294 8.06382 11.3435 8.10468 11.3566C8.10788 11.3576 8.11108 11.3587 8.11429 11.3598C8.15691 11.3733 8.2 11.3854 8.24342 11.3971C8.25192 11.3994 8.26057 11.4018 8.26922 11.404C8.31184 11.4149 8.35461 11.425 8.39787 11.4342C8.40588 11.4359 8.41373 11.4374 8.42175 11.439C8.46564 11.4479 8.50954 11.4561 8.55408 11.4632C8.55585 11.4633 8.55777 11.4638 8.55953 11.464C8.60503 11.4712 8.65086 11.4768 8.69684 11.4819C8.70565 11.4827 8.7143 11.4838 8.72295 11.4846C8.76781 11.4891 8.81284 11.4926 8.85818 11.4952C8.86683 11.4957 8.87532 11.496 8.88397 11.4963C8.93124 11.4986 8.97882 11.5 9.02657 11.5C9.07447 11.5 9.12189 11.4986 9.16932 11.4963C9.17781 11.496 9.18646 11.4957 9.19495 11.4952C9.2403 11.4926 9.28532 11.4891 9.33018 11.4846C9.33899 11.4838 9.34764 11.4829 9.35629 11.4819C9.40244 11.4768 9.44826 11.4712 9.49376 11.464C9.49552 11.4638 9.49728 11.4633 9.49921 11.4632C9.54359 11.4561 9.58765 11.4479 9.63139 11.439C9.6394 11.4374 9.64741 11.4359 9.65526 11.4342C9.69852 11.425 9.74146 11.4149 9.78391 11.404C9.79256 11.4018 9.80122 11.3994 9.80987 11.3971C9.85329 11.3854 9.89639 11.3733 9.939 11.3598C9.94221 11.3587 9.94525 11.3576 9.94846 11.3566C9.98947 11.3435 10.0298 11.3294 10.0701 11.3146C10.0773 11.3119 10.0846 11.3095 10.092 11.3066C10.1325 11.2914 10.1728 11.2752 10.2125 11.2582C10.221 11.2547 10.2293 11.251 10.2376 11.2473C10.2779 11.2297 10.3178 11.2116 10.3572 11.1924C10.3612 11.1903 10.3653 11.1882 10.3693 11.1861C10.4067 11.1677 10.4435 11.1485 10.4801 11.1285C10.4866 11.1249 10.4932 11.1214 10.4996 11.1179C10.5371 11.0971 10.5741 11.0753 10.6108 11.0528C10.6188 11.048 10.6265 11.0431 10.6345 11.0381C10.6712 11.0152 10.7076 10.9916 10.7433 10.9673C10.7478 10.9641 10.7523 10.9609 10.7568 10.9578C10.7904 10.9344 10.8236 10.9102 10.8564 10.8856C10.8619 10.8814 10.8675 10.8774 10.8729 10.8732C10.907 10.8471 10.9405 10.8204 10.9737 10.7928C10.9807 10.7869 10.9878 10.7809 10.9948 10.775C11.0277 10.7471 11.0602 10.7188 11.0919 10.6895C11.0964 10.6853 11.1007 10.6811 11.1052 10.677C11.1353 10.6489 11.1648 10.6204 11.1938 10.5911C11.1982 10.5868 11.2025 10.5826 11.2068 10.5783C11.2371 10.5473 11.2666 10.5158 11.2956 10.4836C11.3017 10.4769 11.3077 10.4701 11.3137 10.4632C11.3423 10.431 11.3705 10.3982 11.3979 10.3647C11.4019 10.3596 11.4061 10.3543 11.4101 10.3492C11.4362 10.3166 11.4619 10.2838 11.4867 10.2501C11.4897 10.2461 11.493 10.2421 11.4958 10.2381C11.4973 10.2362 11.4989 10.2343 11.5003 10.2324C11.5016 10.2343 11.5032 10.236 11.5046 10.2381C11.5075 10.2421 11.5107 10.2461 11.5138 10.2501C11.5386 10.2838 11.5641 10.3168 11.5904 10.3492C11.5944 10.3543 11.5985 10.3596 11.6025 10.3647C11.6299 10.3982 11.6581 10.431 11.6868 10.4632C11.6927 10.4701 11.6988 10.4769 11.7049 10.4836C11.7339 10.5158 11.7634 10.5473 11.7937 10.5783C11.798 10.5826 11.8023 10.5868 11.8067 10.5911C11.8357 10.6204 11.8651 10.6489 11.8953 10.677C11.8997 10.6811 11.9041 10.6853 11.9086 10.6895C11.9403 10.7188 11.9728 10.7471 12.0056 10.775L12.0268 10.7928C12.0598 10.8204 12.0934 10.8471 12.1276 10.8732C12.133 10.8774 12.1386 10.8814 12.1441 10.8856C12.1769 10.9102 12.2101 10.9344 12.2437 10.9578C12.2484 10.9609 12.2527 10.9641 12.2572 10.9673C12.2929 10.9916 12.3293 11.0152 12.366 11.0381C12.374 11.0431 12.3818 11.048 12.3897 11.0528C12.4262 11.0753 12.4632 11.0971 12.5009 11.1179C12.5073 11.1214 12.5139 11.1249 12.5204 11.1285C12.557 11.1485 12.5938 11.1677 12.6311 11.1861C12.6351 11.1882 12.6393 11.1903 12.6433 11.1924C12.6827 11.2116 12.7226 11.2297 12.7628 11.2473C12.7712 11.251 12.7795 11.2547 12.788 11.2582C12.8277 11.2752 12.8679 11.2914 12.9085 11.3066C12.9158 11.3095 12.9232 11.3121 12.9304 11.3146C12.9706 11.3294 13.011 11.3435 13.052 11.3566C13.0552 11.3576 13.0584 11.3587 13.0615 11.3598C13.1041 11.3733 13.1472 11.3854 13.1906 11.3971C13.1993 11.3994 13.2078 11.4018 13.2166 11.404C13.259 11.4149 13.302 11.425 13.3452 11.4342C13.3531 11.4359 13.3611 11.4374 13.3691 11.439C13.4128 11.4479 13.4569 11.4561 13.5013 11.4632C13.5032 11.4633 13.505 11.4638 13.5067 11.464C13.5522 11.4712 13.598 11.4768 13.6442 11.4819C13.6528 11.4827 13.6615 11.4838 13.6703 11.4846C13.7152 11.4891 13.7602 11.4926 13.8055 11.4952C13.814 11.4957 13.8227 11.496 13.8312 11.4963C13.8786 11.4986 13.926 11.5 13.9739 11.5C14.0217 11.5 14.0692 11.4986 14.1165 11.4963C14.1252 11.496 14.1337 11.4957 14.1423 11.4952C14.1876 11.4926 14.2327 11.4891 14.2775 11.4846C14.2862 11.4838 14.2948 11.4829 14.3036 11.4819C14.3496 11.4768 14.3956 11.4712 14.4409 11.464C14.4427 11.4638 14.4446 11.4633 14.4464 11.4632C14.4908 11.4561 14.5348 11.4479 14.5787 11.439C14.5867 11.4374 14.5946 11.4359 14.6026 11.4342C14.6459 11.425 14.6888 11.4149 14.7313 11.404C14.7399 11.4018 14.7486 11.3994 14.7572 11.3971C14.8005 11.3854 14.8436 11.3733 14.8862 11.3598C14.8894 11.3587 14.8926 11.3576 14.8958 11.3566C14.9367 11.3435 14.9772 11.3294 15.0173 11.3146C15.0246 11.3119 15.032 11.3095 15.0392 11.3066C15.0799 11.2914 15.1201 11.2752 15.1598 11.2582C15.1682 11.2547 15.1765 11.251 15.185 11.2473C15.2252 11.2297 15.2651 11.2116 15.3044 11.1924C15.3085 11.1903 15.3125 11.1882 15.3167 11.1861C15.354 11.1677 15.3909 11.1485 15.4274 11.1285C15.4338 11.1249 15.4404 11.1214 15.4468 11.1179C15.4844 11.0971 15.5215 11.0753 15.5581 11.0528C15.566 11.048 15.5738 11.0431 15.5817 11.0381C15.6184 11.0152 15.6548 10.9916 15.6905 10.9673C15.695 10.9641 15.6995 10.9609 15.7039 10.9578C15.7377 10.9344 15.7709 10.9102 15.8036 10.8856C15.8092 10.8814 15.8148 10.8774 15.8203 10.8732C15.8544 10.8471 15.8879 10.8204 15.9209 10.7928C15.9281 10.7869 15.935 10.7809 15.9422 10.775C15.975 10.7471 16.0074 10.7188 16.0391 10.6895C16.0438 10.6853 16.0481 10.6811 16.0526 10.677C16.0825 10.6489 16.1122 10.6204 16.141 10.5911C16.1453 10.5868 16.1498 10.5826 16.154 10.5783C16.1843 10.5473 16.2139 10.5158 16.2429 10.4836C16.249 10.4769 16.2549 10.4701 16.261 10.4632C16.2897 10.431 16.3177 10.3982 16.3451 10.3647C16.3493 10.3596 16.3533 10.3543 16.3575 10.3492C16.3836 10.3166 16.4092 10.2838 16.4341 10.2501C16.4371 10.2461 16.4401 10.2421 16.4432 10.2381C16.4446 10.2362 16.4461 10.2343 16.4475 10.2324C16.449 10.2343 16.4504 10.236 16.4518 10.2381C16.4549 10.2421 16.4579 10.2461 16.461 10.2501C16.486 10.2838 16.5114 10.3168 16.5376 10.3492C16.5417 10.3543 16.5457 10.3596 16.5499 10.3647C16.5773 10.3982 16.6053 10.431 16.634 10.4632C16.6401 10.4701 16.646 10.4769 16.6523 10.4836C16.6811 10.5158 16.7107 10.5473 16.741 10.5783C16.7454 10.5826 16.7497 10.5868 16.754 10.5911C16.7828 10.6204 16.8123 10.6489 16.8424 10.677C16.8469 10.6811 16.8514 10.6853 16.8559 10.6895C16.8876 10.7188 16.92 10.7471 16.953 10.775C16.9599 10.7809 16.9671 10.7869 16.9741 10.7928C17.0071 10.8204 17.0406 10.8471 17.0748 10.8732C17.0802 10.8774 17.0858 10.8814 17.0914 10.8856C17.1241 10.9102 17.1574 10.9344 17.1911 10.9578C17.1956 10.9609 17.2001 10.9641 17.2045 10.9673C17.2403 10.9916 17.2766 11.0152 17.3133 11.0381C17.3212 11.0431 17.329 11.048 17.3369 11.0528C17.3736 11.0753 17.4106 11.0971 17.4482 11.1179C17.4546 11.1214 17.4612 11.1249 17.4676 11.1285C17.5041 11.1485 17.541 11.1677 17.5785 11.1861C17.5825 11.1882 17.5865 11.1903 17.5907 11.1924C17.6299 11.2116 17.6698 11.2297 17.7102 11.2473C17.7185 11.251 17.7268 11.2547 17.7352 11.2582C17.7751 11.2752 17.8151 11.2914 17.8558 11.3066C17.863 11.3095 17.8704 11.3121 17.8778 11.3146C17.9178 11.3294 17.9584 11.3435 17.9992 11.3566C18.0024 11.3576 18.0056 11.3587 18.0088 11.3598C18.0514 11.3733 18.0945 11.3854 18.138 11.3971C18.1466 11.3994 18.1551 11.4018 18.1638 11.404C18.2064 11.4149 18.2493 11.425 18.2924 11.4342C18.3004 11.4359 18.3084 11.4374 18.3163 11.439C18.3602 11.4479 18.4041 11.4561 18.4486 11.4632C18.4504 11.4633 18.4523 11.4638 18.4541 11.464C18.4996 11.4712 18.5454 11.4768 18.5915 11.4819C18.6002 11.4827 18.6088 11.4838 18.6175 11.4846C18.6624 11.4891 18.7074 11.4926 18.7527 11.4952C18.7614 11.4957 18.7699 11.496 18.7785 11.4963C18.8258 11.4986 18.8734 11.5 18.9211 11.5C18.9379 11.5 18.9548 11.4998 18.9716 11.4995V18.1634H10.8942V14.3269C10.8942 13.3249 10.079 12.5097 9.07687 12.5097H7.46156C6.4594 12.5097 5.64422 13.3249 5.64422 14.3269V18.1634H4.02891V11.4995C4.04573 11.4998 4.06255 11.5 4.07938 11.5C4.12712 11.5 4.17471 11.4986 4.22197 11.4963V11.4963ZM9.68266 18.1634H6.85578V14.3269C6.85578 13.993 7.12751 13.7211 7.46156 13.7211H9.07687C9.41093 13.7211 9.68266 13.993 9.68266 14.3269V18.1634ZM20.0817 20.7884H2.91828C2.52863 20.7884 2.21156 20.4714 2.21156 20.0817C2.21156 19.6921 2.52863 19.375 2.91828 19.375H20.0817C20.4714 19.375 20.7884 19.6921 20.7884 20.0817C20.7884 20.4714 20.4714 20.7884 20.0817 20.7884Z" stroke="#90604C" stroke-width="0.4" mask="url(#path-1-outside-1_85_933)"/>
<path d="M13.9233 16.2442H15.5386C16.596 16.2442 17.456 15.3842 17.456 14.3268C17.456 13.2696 16.596 12.4096 15.5386 12.4096H13.9233C12.8659 12.4096 12.006 13.2696 12.006 14.3268C12.006 15.3842 12.8659 16.2442 13.9233 16.2442ZM13.9233 13.821H15.5386C15.8174 13.821 16.0444 14.0481 16.0444 14.3268C16.0444 14.6057 15.8174 14.8326 15.5386 14.8326H13.9233C13.6445 14.8326 13.4175 14.6057 13.4175 14.3268C13.4175 14.0481 13.6445 13.821 13.9233 13.821Z" fill="#90604C" stroke="#90604C" stroke-width="0.2"/>
<path d="M17.4556 4.23078C17.4556 3.84102 17.1396 3.525 16.7498 3.525H6.24982C5.86006 3.525 5.54404 3.84102 5.54404 4.23078C5.54404 4.62054 5.86006 4.93656 6.24982 4.93656H16.7498C17.1396 4.93656 17.4556 4.62054 17.4556 4.23078Z" fill="#90604C" stroke="#90604C" stroke-width="0.2"/>
</svg>
