<svg width="31" height="31" viewBox="0 0 31 31" fill="none" xmlns="http://www.w3.org/2000/svg">
<g opacity="0.5">
<path fill-rule="evenodd" clip-rule="evenodd" d="M9.32589 3.81766V1.86256C9.29757 1.56977 9.43917 0.989848 10.2321 1.01252C10.9981 0.990616 13.9576 1.00222 15.4854 1.01154C17.0131 1.00222 19.9726 0.990616 20.7386 1.01252C21.5315 0.989848 21.6731 1.56977 21.6448 1.86256V3.81766C21.6448 4.18035 21.456 4.45992 21.3616 4.55437L19.889 6.05611V10.618H20.597C21.0662 10.618 21.4466 10.9986 21.4466 11.4681V16.625C21.4466 17.0945 21.0662 17.475 20.597 17.475H19.7089L16.3491 21.8298V23.5954C16.3491 24.0648 15.9687 24.4454 15.4995 24.4454C15.0303 24.4454 14.6499 24.0648 14.6499 23.5954V21.9191L11.2212 17.475H10.402C9.93281 17.475 9.55245 17.0945 9.55245 16.625V11.4681C9.55245 10.9986 9.93281 10.618 10.402 10.618H11.0817V6.05611L9.60908 4.55437C9.51469 4.45992 9.32589 4.18035 9.32589 3.81766ZM15.4651 19.9989L17.4123 17.475H13.5178L15.4651 19.9989ZM11.0817 2.68427H15.3296H15.6411H19.889V3.56265L18.7846 4.69604H15.6411H15.3296H12.1861L11.0817 3.56265V2.68427ZM12.8092 6.39613H15.3296H15.6411H18.1615V10.618H12.8092V6.39613ZM11.2516 12.3181V15.775H12.9508V12.3181H11.2516ZM14.6499 12.3181V15.775H16.3491V12.3181H14.6499ZM19.7474 15.775H18.0483V12.3181H19.7474V15.775ZM3.13918 20.3181C3.41348 19.9373 3.94444 19.851 4.32513 20.1254L5.6174 21.057C5.99808 21.3315 6.08432 21.8627 5.81002 22.2436C5.53573 22.6245 5.00476 22.7108 4.62408 22.4364L3.33181 21.5047C2.95112 21.2303 2.86488 20.699 3.13918 20.3181ZM1 29.149C1 28.6795 1.38037 28.2989 1.84958 28.2989H12.7372L7.63635 24.6216C7.25567 24.3471 7.16942 23.8159 7.44372 23.435C7.71802 23.0541 8.24898 22.9678 8.62967 23.2422L15.4902 28.1882L22.3507 23.2422C22.7313 22.9678 23.2623 23.0541 23.5366 23.435C23.8109 23.8159 23.7247 24.3471 23.344 24.6216L18.2431 28.2989H29.1494C29.6187 28.2989 29.999 28.6795 29.999 29.149C29.999 29.6184 29.6187 29.999 29.1494 29.999H1.84958C1.38037 29.999 1 29.6184 1 29.149ZM26.252 20.5221C26.6327 20.2477 27.1637 20.3339 27.438 20.7148C27.7123 21.0957 27.626 21.627 27.2454 21.9014L26.4142 22.5006C26.0335 22.7751 25.5026 22.6888 25.2283 22.3079C24.954 21.927 25.0402 21.3957 25.4209 21.1213L26.252 20.5221Z" fill="#311E19" stroke="#311E19" stroke-width="0.5"/>
<mask id="mask0_77_22" style="mask-type:alpha" maskUnits="userSpaceOnUse" x="0" y="0" width="31" height="31">
<path fill-rule="evenodd" clip-rule="evenodd" d="M9.32589 3.81766V1.86256C9.29757 1.56977 9.43917 0.989848 10.2321 1.01252C10.9981 0.990616 13.9576 1.00222 15.4854 1.01154C17.0131 1.00222 19.9726 0.990616 20.7386 1.01252C21.5315 0.989848 21.6731 1.56977 21.6448 1.86256V3.81766C21.6448 4.18035 21.456 4.45992 21.3616 4.55437L19.889 6.05611V10.618H20.597C21.0662 10.618 21.4466 10.9986 21.4466 11.4681V16.625C21.4466 17.0945 21.0662 17.475 20.597 17.475H19.7089L16.3491 21.8298V23.5954C16.3491 24.0648 15.9687 24.4454 15.4995 24.4454C15.0303 24.4454 14.6499 24.0648 14.6499 23.5954V21.9191L11.2212 17.475H10.402C9.93281 17.475 9.55245 17.0945 9.55245 16.625V11.4681C9.55245 10.9986 9.93281 10.618 10.402 10.618H11.0817V6.05611L9.60908 4.55437C9.51469 4.45992 9.32589 4.18035 9.32589 3.81766ZM15.4651 19.9989L17.4123 17.475H13.5178L15.4651 19.9989ZM11.0817 2.68427H15.3296H15.6411H19.889V3.56265L18.7846 4.69604H15.6411H15.3296H12.1861L11.0817 3.56265V2.68427ZM12.8092 6.39613H15.3296H15.6411H18.1615V10.618H12.8092V6.39613ZM11.2516 12.3181V15.775H12.9508V12.3181H11.2516ZM14.6499 12.3181V15.775H16.3491V12.3181H14.6499ZM19.7474 15.775H18.0483V12.3181H19.7474V15.775ZM3.13918 20.3181C3.41348 19.9373 3.94444 19.851 4.32513 20.1254L5.6174 21.057C5.99808 21.3315 6.08432 21.8627 5.81002 22.2436C5.53573 22.6245 5.00476 22.7108 4.62408 22.4364L3.33181 21.5047C2.95112 21.2303 2.86488 20.699 3.13918 20.3181ZM1 29.149C1 28.6795 1.38037 28.2989 1.84958 28.2989H12.7372L7.63635 24.6216C7.25567 24.3471 7.16942 23.8159 7.44372 23.435C7.71802 23.0541 8.24898 22.9678 8.62967 23.2422L15.4902 28.1882L22.3507 23.2422C22.7313 22.9678 23.2623 23.0541 23.5366 23.435C23.8109 23.8159 23.7247 24.3471 23.344 24.6216L18.2431 28.2989H29.1494C29.6187 28.2989 29.999 28.6795 29.999 29.149C29.999 29.6184 29.6187 29.999 29.1494 29.999H1.84958C1.38037 29.999 1 29.6184 1 29.149ZM26.252 20.5221C26.6327 20.2477 27.1637 20.3339 27.438 20.7148C27.7123 21.0957 27.626 21.627 27.2454 21.9014L26.4142 22.5006C26.0335 22.7751 25.5026 22.6888 25.2283 22.3079C24.954 21.927 25.0402 21.3957 25.4209 21.1213L26.252 20.5221Z" fill="#90604C" stroke="#90604C"/>
</mask>
<g mask="url(#mask0_77_22)">
<path d="M5.35059 16.225L6.07556 0.275542C11.1504 -1.65773 21.59 -5.52426 22.75 -5.52426C24.1999 -5.52426 25.6499 -1.89938 26.3749 -1.17441C26.9549 -0.594429 29.0331 9.21691 29.9998 14.0501L21.3 21.2998L15.5002 26.3747L14.0503 25.6497L11.1504 23.4748L5.35059 16.225Z" fill="#311E19"/>
</g>
<path d="M19.8496 3.61527V2.66797H11.1499V3.57016L12.2234 4.6979H18.7538L19.8496 3.61527Z" fill="white"/>
<rect x="11.2959" y="12.3101" width="1.71094" height="3.45088" fill="white"/>
<rect x="14.6304" y="12.3101" width="1.71094" height="3.45088" fill="white"/>
<rect x="18.0386" y="12.3101" width="1.71094" height="3.45088" fill="white"/>
<path d="M15.4641 19.9949L17.5046 17.4937H13.4236L15.4641 19.9949Z" fill="white"/>
</g>
</svg>
